<svg width="1280" height="870" viewBox="0 0 1280 870" fill="none" xmlns="http://www.w3.org/2000/svg">
<path fill-rule="evenodd" clip-rule="evenodd" d="M1280 0H0V814.182C0.0750527 814.18 0.137439 814.172 0.199484 814.164C0.272198 814.154 0.344445 814.145 0.436066 814.145C2.2314 814.145 3.70019 814.439 3.70019 814.799C3.70019 815.158 2.2314 815.452 0.436066 815.452C0.34405 815.452 0.271532 815.443 0.198454 815.434C0.136732 815.427 0.0746091 815.419 0 815.416V837.904C0.607714 838.403 1.16661 838.996 1.68051 839.741C3.41827 842.259 6.13252 843.875 11.8618 845.804C16.6076 847.401 17.6466 848.265 19.6931 852.314C21.8798 856.641 23.1824 857.604 28.0714 858.508C30.0978 858.883 34.0038 860.229 36.752 861.5C39.5002 862.771 42.3331 863.812 43.0469 863.812L43.0453 863.811C43.7591 863.811 45.4788 862.784 46.8666 861.529L49.3899 859.247L57.1193 859.663C63.5191 860.008 65.4823 859.88 68.522 858.923C70.9152 858.169 72.8277 857.94 74.0149 858.264C75.0167 858.538 77.5996 858.863 79.7539 858.987C81.9082 859.11 84.7644 859.395 86.1011 859.62C88.2771 859.986 88.6141 859.85 89.3142 858.312C89.9902 856.827 89.8966 856.323 88.6295 854.608C87.8232 853.516 86.271 851.298 85.1792 849.678L83.194 846.734L80.1479 849.599L75.6827 844.86L69.2309 844.853C63.6829 844.848 62.2779 844.612 59.1899 843.17C55.8122 841.594 55.6747 841.439 56.8668 840.563C58.9044 839.065 66.5011 839.338 69.8098 841.027C73.2253 842.772 76.3013 842.769 80.0803 841.02C81.8926 840.181 84.3936 839.65 86.6086 839.635C88.5834 839.623 91.9617 839.184 94.1161 838.664C99.9627 837.25 106.047 837.41 110.433 839.09C114.063 840.48 114.223 840.485 118.489 839.391C121.514 838.615 125.128 838.304 130.348 838.37C135.309 838.433 139.105 838.127 141.541 837.468C146.691 836.075 150.36 836.647 151.594 839.035C152.116 840.046 152.544 841.308 152.544 841.839C152.544 843.182 154.354 844.859 155.804 844.859C157.544 844.859 160.878 841.838 162.371 838.909C164.27 835.182 166.324 834.403 174.244 834.403C178.11 834.403 182.585 833.988 184.72 833.432C188.425 832.466 188.48 832.473 194.781 834.727C200.879 836.909 201.179 836.953 202.779 835.891C205.722 833.939 212.896 830.487 214.014 830.485C214.61 830.484 216.96 831.365 219.236 832.443C221.513 833.521 223.963 834.402 224.681 834.401C225.399 834.399 227.309 833.517 228.924 832.44C231.42 830.777 231.969 830.626 232.568 831.437C233.868 833.193 236.454 833.728 240.142 833C242.051 832.624 248.313 832.102 254.058 831.84C259.808 831.578 265.466 830.987 266.645 830.526C268.357 829.856 269.177 829.849 270.732 830.494C271.899 830.978 273.734 831.132 275.318 830.878C277.023 830.605 279.015 830.814 280.939 831.468C284.407 832.646 285.537 832.387 289.858 829.411C293.413 826.963 295.461 826.713 299.186 828.274C300.576 828.857 303.715 829.587 306.16 829.895C308.606 830.204 311.948 831.051 313.587 831.776C317.136 833.348 321.971 833.473 326.462 832.11C328.353 831.535 332.261 831.136 335.998 831.136C342.227 831.136 342.376 831.099 345.321 828.849C346.967 827.591 348.865 826.561 349.54 826.561C350.215 826.561 352.342 827.738 354.267 829.175L357.767 831.789H365.363C370.438 831.789 374.133 831.441 376.491 830.74C379.486 829.85 380.535 829.815 383.41 830.505C385.88 831.098 387.566 831.136 389.627 830.646C391.183 830.276 394.272 830.121 396.491 830.302C399.326 830.534 401.625 830.288 404.222 829.469C407.387 828.472 408.362 828.42 411.014 829.1C412.717 829.537 415.262 829.839 416.667 829.771C418.073 829.704 421.028 830.131 423.234 830.72C426.019 831.463 429.97 831.789 436.162 831.789C441.931 831.789 446.675 832.153 449.603 832.819C453.99 833.818 454.388 833.798 462.63 832.166C467.307 831.24 471.811 830.482 472.641 830.482C473.471 830.482 475.702 831.642 477.598 833.058C481.542 836.003 485.445 836.81 492.192 836.076C499.076 835.328 499.808 835.432 502.852 837.58C505.016 839.107 506.474 839.631 508.554 839.631C511.941 839.631 513.176 838.746 514.17 835.599C514.587 834.28 515.28 832.923 515.711 832.582C516.141 832.241 518.887 831.806 521.813 831.616C526.062 831.339 528.196 830.788 532.409 828.884C537.281 826.682 537.874 826.559 540.211 827.26C544.907 828.668 547.195 825.571 544.238 821.808C543.52 820.894 542.933 819.833 542.933 819.448C542.933 818.363 545.823 816.729 547.907 816.636C551.503 816.477 557.522 818.594 559.417 820.682C561.707 823.208 561.676 824.218 559.253 826.011C557.034 827.654 556.77 828.799 558.437 829.553C559.066 829.837 565.455 830.121 572.636 830.184C579.817 830.247 586.721 830.504 587.978 830.755C589.492 831.059 591.072 830.873 592.662 830.205C593.982 829.651 596.773 829.006 598.864 828.771C603.379 828.263 604.298 827.664 604.298 825.221C604.298 822.668 606.013 821.098 608.155 821.686C609.086 821.941 611.022 822.087 612.459 822.011C619.881 821.618 622.565 821.887 627.777 823.54L633.303 825.293L637.024 822.54L641.715 824.132C644.295 825.009 647.347 826.121 648.497 826.602C650.212 827.321 651.166 827.33 653.819 826.649C656.569 825.944 657.57 825.976 660.541 826.863C665.471 828.335 698.1 829.124 701.906 827.863C705.264 826.751 712.97 826.758 716.047 827.877C717.999 828.587 719.123 828.6 722.045 827.945C724.896 827.306 730.082 827.307 747.063 827.948C768.177 828.744 768.541 828.736 772.531 827.386C776.508 826.04 776.619 826.037 778.959 827.232C782.942 829.264 784.735 829.383 788.297 827.849C792.594 825.999 793.702 824.657 794.348 820.522C795.15 815.389 796.467 814.573 803.06 815.132C805.988 815.38 809.171 816.064 810.264 816.68C812.819 818.12 814.507 821.562 814.507 825.339C814.507 827.076 814.882 828.673 815.388 829.092C817.046 830.47 826.674 831.697 833.279 831.371C842.144 830.933 842.578 830.807 842.589 828.672C842.607 825.601 843.4 825.011 846.87 825.487C850.661 826.007 850.919 826.226 849.538 827.752C848.147 829.291 848.165 830.226 849.597 830.801C851.51 831.57 869.579 831.937 870.609 831.228C873.052 829.545 866.473 826.94 860.727 827.316C858.953 827.432 858.048 827.548 857.683 827.159C857.272 826.719 857.546 825.638 858.033 823.189C858.544 820.618 856.262 819.431 849.855 818.937L844.538 818.526V816.009C844.538 812.137 846.215 810.865 851.229 810.933C853.473 810.963 856.925 811.238 858.9 811.544C860.875 811.85 863.959 812.302 865.755 812.548C867.892 812.842 869.626 813.563 870.776 814.637L872.531 816.275L875.311 814.231C877.972 812.272 878.357 812.185 884.401 812.185C891.528 812.185 893.692 811.202 894.481 807.603C895.026 805.119 896.031 805.136 898.437 807.67C900.987 810.357 904.287 811.985 909.643 813.198C914.154 814.22 916.349 815.81 916.349 818.058C916.349 818.693 915.929 819.562 915.416 819.988C914.667 820.611 913.98 820.306 911.91 818.434C908.863 815.678 908.146 815.59 905.939 817.702C904.608 818.976 895.524 823.284 894.153 823.291C893.973 823.292 893.781 822.518 893.727 821.572C893.516 817.942 890.995 815.315 889.173 816.828C887.688 818.062 888.143 819.448 890.891 822.065C893.43 824.482 893.465 824.574 892.124 825.293C890.821 825.991 888.679 825.888 883.929 824.9C882.19 824.538 881.694 824.73 880.781 826.125C878.734 829.252 881.955 832.019 885.897 830.519C888.761 829.429 891.441 829.696 896.84 831.611C901.682 833.327 902.003 833.359 905.679 832.471C907.777 831.964 912.536 831.436 916.253 831.299C921.921 831.09 923.764 831.287 927.677 832.526C932.966 834.199 939.44 834.451 943.362 833.136C946.474 832.092 950.427 832.045 976.139 832.745C990.56 833.138 997.032 833.09 998.499 832.578C999.987 832.059 1001.13 832.055 1002.59 832.565C1004.1 833.093 1005.52 833.055 1008.19 832.415C1012.54 831.37 1019.2 831.297 1044.63 832.019C1061.74 832.505 1064.57 832.446 1067.02 831.548C1068.56 830.983 1071.35 830.327 1073.22 830.091C1077.02 829.61 1078.9 828.348 1078.9 826.279C1078.9 825.516 1079.51 824.373 1080.25 823.738C1083.22 821.196 1080.45 818.095 1075.2 818.076C1068.88 818.054 1068.83 816.415 1075.15 815.936C1077.75 815.738 1080.64 815.23 1081.57 814.805C1082.91 814.191 1083.94 814.235 1086.59 815.022C1089.5 815.886 1090.35 815.894 1093.38 815.086C1098.42 813.744 1121.64 813.787 1126.86 815.148C1130 815.967 1131.37 816.014 1134.32 815.401C1138.42 814.548 1144.06 815.018 1146.82 816.445C1149.45 817.809 1150.69 817.664 1153.66 815.644C1155.46 814.419 1156.97 813.918 1158.55 814.018C1167.47 814.582 1181.41 813.47 1186.07 811.82C1189.35 810.66 1197.11 811.034 1202.79 812.628C1205.86 813.489 1206.68 813.482 1210.34 812.562C1212.91 811.918 1217.29 811.533 1222.04 811.533C1229.36 811.533 1231.25 811.081 1229.53 809.742C1228.16 808.67 1216.04 807.419 1208.47 807.568C1202.41 807.687 1200.71 807.486 1197.7 806.294C1192.73 804.328 1183.48 803.799 1179.25 805.24C1174.69 806.793 1160.54 806.532 1161.54 804.913C1161.73 804.6 1163.77 804.344 1166.07 804.344C1168.71 804.344 1171.47 803.863 1173.56 803.037C1175.38 802.318 1177.96 801.726 1179.3 801.721C1180.63 801.716 1183.54 801.143 1185.76 800.446C1189.41 799.3 1190.53 799.243 1197.51 799.862C1201.75 800.238 1206.55 800.568 1208.16 800.594C1212.48 800.665 1219.35 799.241 1221.22 797.886C1224.43 795.556 1227.07 794.542 1229.92 794.542C1233.05 794.542 1234.92 793.256 1233.47 792.104C1233.01 791.746 1230.2 791.274 1227.22 791.055C1224.24 790.836 1221.52 790.48 1221.17 790.266C1219.36 789.143 1222.25 788.657 1230.89 788.631C1236.16 788.616 1241.8 788.276 1243.41 787.877C1245.03 787.477 1254.28 786.975 1263.97 786.761L1280 786.408V720H1280V0ZM53.9677 842.207C53.9677 842.911 53.3667 843.344 52.5779 843.329C52.315 843.324 52.032 843.269 51.7427 843.158C50.1488 842.545 50.5095 841.592 52.3356 841.592C53.2332 841.592 53.9677 841.869 53.9677 842.207ZM48.5474 840.701C48.4054 840.843 47.6528 840.885 46.6043 840.858C43.4589 840.777 37.6471 840.077 37.6471 839.608C37.6471 838.358 43.856 838.446 47.3667 839.745C48.2244 840.062 48.7561 840.492 48.5474 840.701ZM1063.89 827.503C1063.89 827.848 1063.57 828.093 1063.22 828.176C1062.86 828.259 1062.45 828.18 1062.26 827.879C1062.04 827.513 1062.31 827.215 1062.87 827.215C1063.43 827.215 1063.89 827.345 1063.89 827.503ZM1060.29 825.418C1060.68 826.352 1060.42 826.56 1058.9 826.554C1055.48 826.541 1052.03 825.728 1051.69 824.856C1051.51 824.382 1051.98 823.129 1052.73 822.073C1054.56 819.499 1054.46 818.811 1051.97 816.626L1049.85 814.765L1054.42 815.182C1056.93 815.411 1059.21 815.799 1059.48 816.043C1059.74 816.287 1059.6 817.43 1059.17 818.583C1058.39 820.655 1058.44 820.996 1060.29 825.418ZM1068.54 825.609C1066.97 826.158 1065.98 826.368 1065.5 826.226C1065.02 826.084 1065.07 825.59 1065.59 824.732C1067.47 821.65 1074.27 820.341 1076.98 822.538L1078.46 823.742L1074.93 824.175C1072.99 824.412 1070.11 825.057 1068.54 825.609ZM572.759 825.51C572.518 825.657 572.309 825.759 572.115 825.808C571.533 825.956 571.085 825.636 570.315 824.697C568.716 822.746 569.254 821.858 571.882 822.113C573.397 822.261 573.942 822.641 573.942 823.549C573.942 824.229 573.41 825.111 572.759 825.51ZM842.58 820.353C841.982 821.074 840.915 821.36 839.814 821.314C837.979 821.239 836.051 820.242 836.051 818.805C836.051 816.431 837.381 816.168 839.791 818.066C840.704 818.785 841.887 819.373 842.421 819.373C843.211 819.373 843.24 819.557 842.58 820.353ZM789.048 818.758C789.048 819.096 788.607 819.373 788.069 819.373C787.059 819.373 786.772 818.602 787.508 817.866C788.029 817.344 789.048 817.934 789.048 818.758ZM18.0623 816.095C17.5237 816.449 16.7893 816.739 16.4303 816.739C16.0712 816.739 15.3368 816.449 14.7982 816.095C13.9278 815.523 13.9278 815.381 14.7982 814.809C15.3368 814.455 16.0712 814.166 16.4303 814.166C16.7893 814.166 17.5237 814.455 18.0623 814.809C18.9328 815.381 18.9328 815.523 18.0623 816.095ZM45.305 816.5C45.1966 816.609 45.0014 816.669 44.7746 816.679C44.5478 816.688 44.2886 816.647 44.0529 816.552C43.5321 816.344 43.6876 816.188 44.4482 816.157C45.1363 816.128 45.5219 816.283 45.305 816.5ZM1050.31 813.469C1048.34 815.272 1045.68 816.337 1042.87 816.515C1041.93 816.575 1040.98 816.536 1040.02 816.393C1037.34 815.99 1037.12 815.812 1037.12 814.019C1037.12 812.361 1036.74 811.929 1034.49 811.045C1033.05 810.476 1031.97 809.692 1032.1 809.301C1032.23 808.911 1034.07 808.38 1036.2 808.123C1038.32 807.867 1040.94 807.381 1042.02 807.044C1043.09 806.706 1044.56 806.621 1045.28 806.856C1046 807.091 1048.26 807.284 1050.3 807.284C1052.35 807.284 1054.34 807.603 1054.73 807.992C1055.64 808.897 1054.95 810.725 1053.53 811.176C1052.93 811.368 1051.48 812.4 1050.31 813.469ZM840.774 810.739C841.156 812.201 840.237 814.799 839.337 814.799C838.6 814.799 838.396 810.709 839.099 810.006C839.846 809.258 840.457 809.525 840.774 810.739ZM1070.32 810.634C1067.66 811.182 1066.24 811.457 1065.27 811.461C1064.31 811.465 1063.8 811.199 1062.99 810.666C1061.08 809.414 1060.72 807.31 1062.31 806.7C1062.88 806.482 1065.3 806.29 1067.69 806.274C1070.09 806.257 1072.93 805.841 1074.01 805.347C1076.85 804.046 1079.82 804.135 1081.11 805.56C1082.16 806.724 1082.07 806.838 1079.07 808.127C1077.35 808.869 1073.41 809.997 1070.32 810.634ZM1021.08 809.587C1020.27 809.899 1019.06 810.082 1017.72 810.158C1013.69 810.386 1008.4 809.647 1008.4 808.502C1008.4 807.891 1009.27 807.606 1011.17 807.598C1013.25 807.588 1019.36 806.363 1020.59 805.709C1020.65 805.676 1021.16 805.829 1021.73 806.047C1023.36 806.675 1022.96 808.872 1021.08 809.587ZM1094.24 806.957C1090.22 808.981 1088.1 809.713 1086.38 809.462C1085.81 809.379 1085.28 809.185 1084.74 808.894C1082.69 807.801 1083.25 806.714 1087.02 804.425C1089.64 802.835 1091.81 802.115 1095.29 801.678C1097.88 801.352 1100.15 800.936 1100.33 800.754C1101 800.085 1102.92 800.449 1103.7 801.394C1104.99 802.951 1104 804.343 1101.6 804.343C1100.38 804.343 1097.17 805.486 1094.24 806.957ZM1133.09 806.957C1133.09 807.316 1132.04 807.61 1130.76 807.61C1129.38 807.61 1128.6 807.346 1128.84 806.957C1129.06 806.597 1130.11 806.303 1131.17 806.303C1132.22 806.303 1133.09 806.597 1133.09 806.957ZM1130.48 801.075C1130.48 801.435 1129.45 801.729 1128.19 801.729C1126.93 801.729 1125.91 801.435 1125.91 801.075C1125.91 800.716 1126.93 800.422 1128.19 800.422C1129.45 800.422 1130.48 800.716 1130.48 801.075ZM1248.64 767.094C1248.64 767.467 1246.68 767.747 1244.07 767.747C1241.55 767.747 1239.5 767.473 1239.5 767.137C1239.5 766.429 1242.49 765.851 1244.39 766.19C1245.11 766.319 1246.36 766.426 1247.17 766.432C1247.98 766.437 1248.64 766.735 1248.64 767.094Z" fill="black"/>
<path d="M376.912 868.152C376.06 869.005 376.467 869.69 377.823 869.69C378.583 869.69 379.069 869.348 378.925 868.914C378.607 867.959 377.517 867.547 376.912 868.152Z" fill="black"/>
<path d="M432.932 868.061C432.932 869.174 433.439 869.392 436.413 869.563C440.282 869.784 441.916 868.92 441.614 866.814C441.376 865.153 440.404 865.006 436.196 865.993C433.627 866.596 432.932 867.035 432.932 868.061Z" fill="black"/>
<path d="M175.63 862.829C175.01 864.447 175.904 865.769 177.619 865.769C179.787 865.769 180.342 864.658 178.947 863.115C177.579 861.602 176.148 861.478 175.63 862.829Z" fill="black"/>
<path d="M226.749 860.323C225.344 861.73 228.222 864.463 231.109 864.463C233.565 864.463 235.84 862.491 235.227 860.893C234.941 860.147 233.855 859.888 231.013 859.888C228.907 859.888 226.989 860.084 226.749 860.323Z" fill="black"/>
<path d="M941.857 862.889C942.437 863.588 944.497 863.81 950.376 863.81L958.129 863.81V861.001C958.129 859.456 958.483 857.838 958.914 857.407C960.104 856.216 970.952 856.399 974.689 857.674C977.191 858.527 978.308 858.589 980.642 858C982.222 857.602 987.279 857.275 991.879 857.275C998.335 857.275 1001.28 856.974 1004.81 855.953C1009.62 854.56 1012.55 854.663 1016.63 856.369C1019.22 857.452 1025.21 857.557 1027.78 856.563C1028.79 856.171 1032.45 855.689 1035.93 855.491C1039.4 855.293 1042.59 854.911 1043.03 854.642C1044.16 853.945 1043.18 852.704 1041.49 852.684C1040.09 852.667 1037.11 851.665 1026.02 847.467C1020.53 845.388 1020.32 845.363 1006.11 845.031C992.16 844.706 986.873 843.952 990.771 842.841C991.668 842.585 998.131 842.344 1005.13 842.304C1014.58 842.25 1018.7 841.971 1021.13 841.224C1023.81 840.398 1026.45 840.298 1035.86 840.664C1044.39 840.995 1047.72 840.905 1048.83 840.31C1049.82 839.778 1050.1 839.292 1049.67 838.858C1048.74 837.933 1008.71 835.887 983.916 835.497C967.001 835.231 962.546 835.343 960.502 836.086C956.819 837.422 947.177 837.877 938.29 837.133C931.694 836.581 929.976 836.644 926.865 837.551C923.91 838.412 919.995 838.621 906.57 838.634C892.31 838.649 889.91 838.791 889.754 839.631C889.628 840.308 891.038 841.171 894.311 842.419C898.44 843.993 899.343 844.131 901.334 843.487C902.85 842.997 909.714 842.791 921.736 842.874C934.088 842.96 940.585 842.758 942.156 842.239C943.932 841.652 944.942 841.66 946.562 842.277C948.615 843.058 955.479 843.661 972.981 844.597C977.739 844.852 981.631 845.265 981.631 845.515C981.631 845.765 975.535 846.175 968.085 846.426C960.635 846.678 953.364 847.156 951.928 847.49C950.491 847.823 942.093 848.103 933.263 848.111C921.119 848.124 916.439 848.358 914.047 849.079C912.308 849.603 908.81 850.221 906.273 850.452C903.736 850.683 900.044 851.327 898.07 851.882C895.213 852.684 892.521 852.805 884.9 852.475C874.115 852.008 871.138 852.331 871.443 853.933C871.7 855.283 877.78 855.781 895.947 855.939C905.21 856.02 909.846 855.807 911.442 855.229C913.391 854.524 914.406 854.589 918.463 855.677C922.352 856.721 925.374 856.949 935.281 856.949C946.857 856.949 947.358 857.003 947.358 858.235C947.358 859.141 946.682 859.721 945.073 860.196C941.63 861.212 940.944 861.787 941.857 862.889Z" fill="black"/>
<path d="M244.263 861.199C243.875 861.829 244.809 862.394 245.866 862.42C246.218 862.429 246.584 862.378 246.919 862.249C248.227 861.747 247.506 860.542 245.898 860.542C245.222 860.542 244.487 860.837 244.263 861.199Z" fill="black"/>
<path d="M1056.4 853.971C1056 854.618 1057.63 855.474 1059.05 855.639C1059.53 855.694 1059.98 855.673 1060.32 855.541C1060.88 855.327 1061.22 854.821 1061.09 854.416C1060.77 853.446 1056.95 853.083 1056.4 853.971Z" fill="black"/>
<path d="M105.884 851.423C107.039 853.661 108.688 854.661 111.211 854.658C113.977 854.655 119.25 851.175 119.25 849.354C119.25 848.261 117.082 846.819 115.45 846.828C114.489 846.833 111.943 847.387 109.793 848.059L105.884 849.28L105.223 847.232C104.462 844.875 103.584 844.693 97.1395 845.55C92.5457 846.161 92.1626 846.344 92.6756 847.682C92.9232 848.328 94.797 848.741 98.9679 849.067C104.661 849.513 104.947 849.61 105.884 851.423Z" fill="black"/>
<path d="M847.59 852.476C846.88 853.187 848.516 854.661 850.004 854.65C851.876 854.638 853.295 853.664 852.744 852.772C852.263 851.992 848.301 851.765 847.59 852.476Z" fill="black"/>
<path d="M696.347 851.73C696.347 853.574 697.957 854.576 700.614 854.628C702.209 854.66 704.18 854.35 706.407 853.674C708.17 853.138 710.723 852.7 712.082 852.7C715.363 852.7 718.579 850.102 717.494 848.328C717.095 847.677 715.627 846.942 714.229 846.693C711.453 846.199 704.811 846.169 702.222 846.64C699.606 847.115 696.347 849.939 696.347 851.73Z" fill="black"/>
<path d="M792.151 852.19C794.157 853.941 795.423 854.543 797.767 854.388C798.548 854.337 799.448 854.201 800.536 853.995C803.331 853.467 807.258 853.362 812.468 853.675C821.016 854.189 822.995 853.881 822.995 852.032C822.995 850.407 821.712 850.238 805.638 849.76C794.864 849.44 792.389 849.533 791.768 850.282C791.181 850.99 791.266 851.417 792.151 852.19Z" fill="black"/>
<path d="M829.638 852.484C829.776 853.203 830.481 853.611 831.153 853.662C831.824 853.714 832.461 853.408 832.461 852.7C832.461 852.161 831.774 851.623 830.935 851.504C829.75 851.336 829.459 851.556 829.638 852.484Z" fill="black"/>
<path d="M132.457 852.045C133.761 852.841 135.922 853.28 138.341 853.346C140.761 853.411 143.439 853.104 145.779 852.407C147.526 851.887 149.774 851.291 150.777 851.081C152.859 850.647 153.83 848.927 152.477 848.069C151.975 847.752 149.509 847.474 146.995 847.453C142.28 847.413 134.313 846.555 131.936 845.832C131.083 845.572 130.264 845.807 129.717 846.466C128.51 847.922 129.713 850.37 132.457 852.045Z" fill="black"/>
<path d="M678.721 851.828C678.721 852.756 679.139 853.269 679.616 853.323C680.092 853.376 680.627 852.972 680.863 852.07C681.207 850.754 679.92 849.103 679.15 849.874C678.914 850.11 678.721 850.989 678.721 851.828Z" fill="black"/>
<path d="M633.459 850.521C632.572 851.409 633.064 852.7 634.29 852.7C635.92 852.7 636.722 851.417 635.555 850.677C634.463 849.984 634.028 849.951 633.459 850.521Z" fill="black"/>
<path d="M657.096 851.601C657.718 852.224 658.089 852.546 658.417 852.598C658.745 852.649 659.031 852.432 659.484 851.979C660.054 851.408 660.307 850.496 660.069 849.875C659.599 848.65 656.845 848.385 656.157 849.499C655.913 849.894 656.336 850.84 657.096 851.601Z" fill="black"/>
<path d="M733.231 850.739C732.582 851.458 732.345 852.046 732.704 852.046C733.063 852.046 733.887 851.458 734.537 850.739C735.187 850.02 735.425 849.432 735.066 849.432C734.707 849.432 733.881 850.02 733.231 850.739Z" fill="black"/>
<path d="M644.575 848.543C643.894 849.224 644.756 850.086 646.119 850.086C646.816 850.086 647.385 849.645 647.385 849.106C647.385 848.136 645.382 847.735 644.575 848.543Z" fill="black"/>
<path d="M173.761 846.275C175.332 847.362 176.912 847.958 178.329 848.053C179.747 848.147 181.001 847.739 181.921 846.818C183.401 845.337 183.511 844.65 182.555 842.862C181.053 840.052 176.036 838.828 172.782 840.476C170.233 841.767 170.628 844.107 173.761 846.275Z" fill="black"/>
<path d="M633.342 844.232C632.877 845.697 633.381 846.598 634.413 846.554C634.757 846.54 635.159 846.42 635.604 846.181C637.352 845.245 637.1 843.295 635.194 843.022C634.224 842.883 633.65 843.259 633.342 844.232Z" fill="black"/>
<path d="M598.024 845.247C598.314 845.358 598.694 845.414 599.076 845.414C599.458 845.414 599.84 845.358 600.129 845.247C600.982 844.92 601.028 844.658 600.375 843.87C599.36 842.645 598.792 842.645 597.777 843.87C597.124 844.658 597.172 844.92 598.024 845.247Z" fill="black"/>
<path d="M495.172 842.573C499.306 843.055 501.692 843.267 503.075 843.139C504.459 843.01 504.84 842.542 504.964 841.664C505.085 840.807 504.791 839.856 504.311 839.551C503.83 839.246 500.417 838.992 496.725 838.987C491.167 838.979 489.945 839.157 489.613 840.023C489.054 841.482 490.159 841.989 495.172 842.573Z" fill="black"/>
<path d="M294.3 841.233C294.52 842.348 295.525 842.415 310.483 842.294C322.982 842.192 326.936 841.952 328.762 841.182C330.303 840.532 332.031 840.338 333.866 840.609C336.503 840.998 336.641 840.938 336.641 839.376C336.641 838.035 336.19 837.605 334.193 837.043C330.817 836.093 319.117 835.625 316.729 836.343C311.351 837.963 309.029 838.295 302.982 838.309C296.019 838.326 293.87 839.049 294.3 841.233Z" fill="black"/>
<path d="M357.265 841.645C357.983 841.871 358.781 841.961 359.759 841.911C360.737 841.86 361.895 841.669 363.34 841.331C369.236 839.954 370.612 838.425 368.046 836.101C367.135 835.276 365.29 834.91 361.028 834.712C356.243 834.49 354.484 834.703 350.824 835.943C343.535 838.412 343.676 839.696 351.329 840.567C353.483 840.812 356.154 841.297 357.265 841.645Z" fill="black"/>
<path d="M1068.29 838.952C1070.48 839.568 1072.22 839.93 1073.65 840.05C1075.08 840.17 1076.2 840.047 1077.12 839.693C1078.75 839.069 1080.11 837.346 1079.47 836.721C1079.03 836.286 1067.49 835.731 1066.66 836.105C1065.06 836.826 1065.89 838.274 1068.29 838.952Z" fill="black"/>
<path d="M574.269 837.645C574.269 838.875 578.805 839.631 586.18 839.631C594.815 839.631 598.004 838.634 597.633 836.051C597.397 834.411 596.26 834.273 592.577 835.438C590.703 836.031 587.211 836.316 582.761 836.237C576.154 836.121 574.269 836.433 574.269 837.645Z" fill="black"/>
<path d="M565.583 836.781C564.902 837.462 565.765 838.323 567.127 838.323C567.824 838.323 568.393 837.882 568.393 837.343C568.393 836.373 566.39 835.973 565.583 836.781Z" fill="black"/>
<path d="M380.789 837.939C381.088 838.054 381.428 838.064 381.759 838C382.755 837.809 383.685 836.957 383.273 836.29C382.854 835.611 380.793 835.515 380.163 836.146C379.443 836.866 379.666 837.508 380.789 837.939Z" fill="black"/>
<path d="M1057.15 836.131C1056.3 836.984 1056.71 837.669 1058.07 837.669C1058.83 837.669 1059.31 837.327 1059.17 836.893C1058.85 835.938 1057.76 835.526 1057.15 836.131Z" fill="black"/>
<path d="M616.554 837.13C616.792 837.367 617.144 837.51 617.539 837.572C618.724 837.76 620.293 837.223 620.293 836.364C620.293 835.178 617.03 834.651 616.364 835.729C616.11 836.141 616.196 836.771 616.554 837.13Z" fill="black"/>
<path d="M716.258 833.096C715.451 834.403 716.734 835.057 720.105 835.057C723.908 835.057 724.772 834.637 723.68 833.32C722.83 832.295 716.864 832.115 716.258 833.096Z" fill="black"/>
<path d="M752.068 831.477C751.46 833.061 752.942 833.729 757.06 833.729C764.156 833.729 764.034 831.563 756.896 830.831C753.109 830.442 752.429 830.533 752.068 831.477Z" fill="black"/>
<path d="M1086.2 821.522C1085.93 823.895 1087.85 824.588 1095.13 824.734C1100.63 824.844 1103.24 824.154 1106.17 821.819C1108.6 819.872 1101.16 818.388 1096.97 819.984C1095.89 820.394 1094.43 820.321 1092.52 819.765C1090.95 819.308 1088.94 819.119 1088.04 819.344C1086.88 819.634 1086.35 820.265 1086.2 821.522Z" fill="black"/>
<path d="M1240.52 792.516C1239.95 793.433 1245.76 799.357 1246.67 798.793C1247.59 798.222 1247.5 795.015 1246.51 793.67C1245.52 792.306 1241.16 791.468 1240.52 792.516Z" fill="black"/>
<path d="M1266.37 796.562C1266.74 796.759 1267.38 796.897 1268.11 796.963C1268.84 797.029 1269.67 797.022 1270.41 796.926C1271.9 796.734 1274.81 796.377 1276.87 796.132C1278.43 795.947 1279.42 795.711 1280 795.42V793.869C1279.09 793.402 1276.63 793.242 1269.14 792.932C1261.07 792.599 1259.15 792.693 1258.52 793.451C1256.65 795.704 1259.87 797.814 1263.23 796.537C1264.52 796.047 1265.43 796.055 1266.37 796.562Z" fill="black"/>
</svg>
