<?xml version="1.0" encoding="UTF-8" standalone="no"?>
<svg
   width="1280"
   height="615.40039"
   viewBox="0 0 1280 615.40039"
   fill="none"
   version="1.1"
   id="svg74"
   xmlns="http://www.w3.org/2000/svg"
   xmlns:svg="http://www.w3.org/2000/svg">
  <defs
     id="defs78" />
  <path
     id="path2"
     style="fill:#000000"
     d="M 1.1816406,0 C 0.52710038,0 0,0.52515 0,1.17969 v 558.71289 c 0.0750527,-0.002 0.13717375,-0.01 0.19921875,-0.0176 0.072714,-0.01 0.14470713,-0.0195 0.23632813,-0.0195 1.79533402,0 3.26367182,0.2943 3.26367192,0.6543 0,0.359 -1.4683379,0.65234 -3.26367192,0.65234 -0.092016,0 -0.16325013,-0.009 -0.23632813,-0.0176 C 0.13749675,561.13753 0.0746091,561.12996 0,561.12696 v 22.48828 c 0.607714,0.499 1.1657875,1.09093 1.6796875,1.83593 1.73776,2.518 4.4523607,4.13546 10.1816405,6.06446 4.7458,1.597 5.785531,2.46076 7.832031,6.50976 2.1867,4.327 3.489907,5.28936 8.378907,6.19336 2.0264,0.375 5.931487,1.72119 8.679687,2.99219 2.747173,1.27052 5.577852,2.30977 6.292969,2.31055 0.7138,0 2.434466,-1.02625 3.822266,-2.28125 l 2.523437,-2.28321 7.728516,0.41602 c 6.3998,0.345 8.362643,0.21872 11.402343,-0.73828 2.3932,-0.754 4.306941,-0.98416 5.494141,-0.66016 1.0018,0.274 3.583981,0.59866 5.738281,0.72266 2.1543,0.123 5.010956,0.40781 6.347656,0.63281 2.176001,0.366 2.512791,0.23136 3.212891,-1.30664 0.676,-1.485 0.581553,-1.99008 -0.685547,-3.70508 -0.8063,-1.092 -2.357419,-3.30969 -3.449218,-4.92969 l -1.986329,-2.94335 -3.044921,2.86523 -4.464844,-4.74023 -6.453125,-0.006 c -5.548,-0.005 -6.953016,-0.2416 -10.041016,-1.6836 -3.3777,-1.576 -3.514365,-1.73142 -2.322265,-2.60742 2.0376,-1.498 9.634659,-1.22416 12.943359,0.46484 3.4155,1.745 6.490531,1.74119 10.269531,-0.008 1.8123,-0.839 4.314297,-1.36976 6.529297,-1.38476 1.9748,-0.012 5.351459,-0.45071 7.505859,-0.97071 5.8466,-1.414 11.932356,-1.25422 16.318356,0.42578 3.63,1.39 3.78869,1.3948 8.05469,0.30078 3.025,-0.77598 6.63938,-1.08748 11.85938,-1.02148 4.961,0.063 8.75736,-0.24139 11.19336,-0.90039 5.15,-1.393 8.81873,-0.82159 10.05273,1.56641 0.522,1.011 0.95117,2.27368 0.95117,2.80468 0,1.343 1.80977,3.01953 3.25977,3.01954 1.74,0 5.0734,-3.02218 6.5664,-5.95118 1.899,-3.727 3.95305,-4.50586 11.87305,-4.50586 3.866,0 8.34156,-0.4147 10.47656,-0.9707 3.705,-0.966 3.75955,-0.95908 10.06055,1.29492 6.098,2.182 6.39805,2.22608 7.99805,1.16406 2.943,-1.95199 10.11637,-5.40426 11.23437,-5.40624 0.596,-10e-4 2.94666,0.88098 5.22266,1.95898 2.277,1.078 4.72731,1.95803 5.44531,1.95703 0.718,-0.002 2.62719,-0.88394 4.24219,-1.96094 2.496,-1.663 3.04553,-1.81295 3.64453,-1.00195 1.3,1.756 3.88622,2.2905 7.57422,1.5625 1.909,-0.376 8.17101,-0.89816 13.91601,-1.16016 5.75,-0.262 11.40694,-0.85345 12.58594,-1.31445 1.712,-0.67 2.53289,-0.67625 4.08789,-0.0312 1.167,0.484 3.00194,0.63877 4.58594,0.38477 1.705,-0.273 3.69709,-0.0642 5.62109,0.58984 3.468,1.178 4.59697,0.91741 8.91797,-2.05859 3.555,-2.448 5.60313,-2.69772 9.32813,-1.13672 1.39,0.583 4.52961,1.31309 6.97461,1.62109 2.446,0.309 5.78873,1.15586 7.42773,1.88086 3.549,1.572 8.384,1.69698 12.875,0.33399 1.891,-0.57502 5.79816,-0.97266 9.53516,-0.97266 6.229,0 6.37726,-0.0371 9.32226,-2.28711 1.646,-1.258 3.54375,-2.28906 4.21875,-2.28906 0.675,0 2.80352,1.17823 4.72852,2.61523 l 3.5,2.61328 h 7.5957 c 5.075,0 8.76895,-0.34783 11.12695,-1.04883 2.995,-0.89 4.04493,-0.92437 6.91993,-0.23437 2.47,0.593 4.15579,0.63062 6.21679,0.14062 1.556,-0.37 4.64428,-0.52475 6.86328,-0.34375 2.835,0.232 5.13543,-0.015 7.73243,-0.83398 3.165,-0.997 4.13901,-1.04914 6.79101,-0.36914 1.703,0.437 4.2493,0.73987 5.6543,0.67187 1.406,-0.067 4.3604,0.36022 6.56641,0.94922 2.785,0.743 6.73573,1.06836 12.92773,1.06836 5.769,0 10.51341,0.3633 13.44141,1.0293 4.387,0.999 4.78534,0.97966 13.02734,-0.65234 4.677,-0.926 9.17977,-1.6836 10.00976,-1.6836 0.83,0 3.06104,1.16017 4.95704,2.57617 3.944,2.945 7.84675,3.75158 14.59375,3.01758 6.884,-0.748 7.61615,-0.64409 10.66015,1.50391 2.164,1.527 3.62313,2.05078 5.70313,2.05078 3.387,0 4.62123,-0.88425 5.61523,-4.03125 0.417,-1.319 1.11002,-2.67658 1.54102,-3.01758 0.43,-0.341 3.17556,-0.7768 6.10156,-0.9668 4.249,-0.277 6.3827,-0.82646 10.5957,-2.73046 4.872,-2.202 5.46574,-2.326 7.80274,-1.625 4.696,1.408 6.98434,-1.68818 4.02734,-5.45118 -0.718,-0.914 -1.30469,-1.97632 -1.30469,-2.36132 0,-1.085 2.88866,-2.71755 4.97266,-2.81055 3.596,-0.159 9.61672,1.95692 11.51172,4.04492 2.29,2.526 2.25894,3.53708 -0.16406,5.33008 -2.219,1.643 -2.48341,2.78701 -0.81641,3.54101 0.629,0.284 7.01822,0.56786 14.19922,0.63086 7.181,0.063 14.0848,0.32127 15.3418,0.57227 1.514,0.304 3.09359,0.11722 4.68359,-0.55078 1.32,-0.554 4.11017,-1.1986 6.20117,-1.4336 4.515,-0.508 5.43555,-1.10778 5.43555,-3.55078 0,-2.553 1.71347,-4.12315 3.85547,-3.53515 0.931,0.255 2.86768,0.40217 4.30468,0.32617 7.422,-0.393 10.10636,-0.12566 15.31836,1.52734 l 5.52539,1.75391 3.72071,-2.75391 4.6914,1.59375 c 2.58,0.877 5.63125,1.98775 6.78125,2.46875 1.715,0.719 2.66927,0.72788 5.32227,0.0469 2.75,-0.705 3.75166,-0.67216 6.72266,0.21484 4.93,1.472 37.55923,2.261 41.36523,1 3.358,-1.112 11.06363,-1.10533 14.14063,0.0137 1.95199,0.71 3.07604,0.72336 5.99804,0.0684 2.851,-0.639 8.03658,-0.63904 25.01758,0.002 21.114,0.796 21.47875,0.78945 25.46875,-0.56055 3.977,-1.346 4.08773,-1.3493 6.42773,-0.1543 3.983,2.032 5.77588,2.15119 9.3379,0.61719 4.297,-1.85 5.40478,-3.19313 6.05078,-7.32813 0.802,-5.133 2.11989,-5.94767 8.71289,-5.38867 2.928,0.248 6.11012,0.93088 7.20312,1.54688 2.555,1.44 4.24414,4.88315 4.24414,8.66015 0,1.737 0.37486,3.33296 0.88086,3.75196 1.658,1.378 11.28563,2.60529 17.89063,2.27929 8.865,-0.438 9.29954,-0.56422 9.31054,-2.69921 0.018,-3.07102 0.8093,-3.66155 4.2793,-3.18555 3.791,0.52 4.04897,0.73962 2.66797,2.26562 -1.391,1.539 -1.37145,2.47383 0.0606,3.04883 1.913,0.769 19.98171,1.13674 21.01172,0.42774 2.44299,-1.683 -4.13682,-4.28811 -9.88282,-3.91211 -1.774,0.116 -2.67797,0.23079 -3.04297,-0.15821 -0.411,-0.44 -0.13739,-1.51975 0.34961,-3.96875 0.511,-2.571 -1.77073,-3.75795 -8.17773,-4.25195 l -5.31836,-0.41211 v -2.51562 c 0,-3.872 1.67741,-5.14418 6.69141,-5.07618 2.244,0.03 5.69687,0.30533 7.67187,0.61133 1.975,0.306 5.05947,0.75791 6.85547,1.00391 2.137,0.294 3.86953,1.01389 5.01953,2.08789 l 1.75586,1.63867 2.7793,-2.04492 c 2.661,-1.959 3.04584,-2.04492 9.08984,-2.04492 7.127,0 9.29108,-0.98303 10.08008,-4.58203 0.545,-2.484 1.55103,-2.4676 3.95703,0.0664 2.55,2.687 5.84908,4.31435 11.20508,5.52735 4.511,1.022 6.70703,2.61332 6.70703,4.86132 0,0.635 -0.42059,1.50369 -0.93359,1.92969 -0.749,0.623 -1.43586,0.31731 -3.50586,-1.55469 -3.047,-2.756 -3.76371,-2.84442 -5.97071,-0.73242 -1.331,1.274 -10.41611,5.58285 -11.78711,5.58985 -0.18,10e-4 -0.37178,-0.77275 -0.42578,-1.71875 -0.211,-3.63 -2.73073,-6.25714 -4.55273,-4.74415 -1.485,1.23402 -1.03119,2.61933 1.71679,5.23633 2.539,2.417 2.57343,2.50952 1.23243,3.22852 -1.303,0.698 -3.44336,0.59542 -8.19336,-0.39258 -1.739,-0.362 -2.23544,-0.17039 -3.14844,1.22461 -2.047,3.127 1.17323,5.89453 5.11523,4.39453 2.864,-1.09 5.54436,-0.8232 10.94336,1.0918 4.842,1.716 5.16385,1.74737 8.83985,0.85937 2.098,-0.507 6.85722,-1.03487 10.57422,-1.17187 5.668,-0.209 7.51082,-0.0124 11.42382,1.22656 5.289,1.673 11.7616,1.92633 15.6836,0.61133 3.112,-1.044 7.06534,-1.09258 32.77734,-0.39258 14.421,0.393 20.89238,0.346 22.35938,-0.16602 1.488,-0.519 2.6317,-0.52367 4.0917,-0.0137 1.51,0.528 2.9297,0.48961 5.5997,-0.15039 4.35,-1.045 11.0114,-1.11653 36.4414,-0.39453 17.11,0.486 19.9386,0.4273 22.3886,-0.4707 1.54,-0.565 4.3312,-1.22103 6.2012,-1.45703 3.8,-0.481 5.6797,-1.7435 5.6797,-3.8125 0,-0.763 0.6096,-1.90602 1.3496,-2.54102 2.97,-2.542 0.1992,-5.64311 -5.0508,-5.66211 -6.32,-0.022 -6.3688,-1.66162 -0.049,-2.14062 2.6,-0.198 5.4899,-0.70586 6.4199,-1.13086 1.34,-0.614 2.3695,-0.57021 5.0195,0.21679 2.9101,0.864 3.7611,0.87246 6.7911,0.0645 5.04,-1.342 28.2585,-1.2985 33.4785,0.0625 3.14,0.819 4.5109,0.86495 7.4609,0.25195 4.1,-0.853 9.74,-0.38208 12.5,1.04492 2.63,1.364 3.8699,1.21922 6.8399,-0.80078 1.8,-1.225 3.3106,-1.72695 4.8906,-1.62695 8.92,0.564 22.8595,-0.54727 27.5195,-2.19727 3.28,-1.16 11.0388,-0.7854 16.7188,0.8086 3.07,0.861 3.8907,0.85359 7.5507,-0.0664 2.57,-0.644 6.9493,-1.0293 11.6993,-1.0293 7.32,0 9.2102,-0.45201 7.4902,-1.79101 -1.3699,-1.072 -13.4885,-2.32283 -21.0586,-2.17383 -6.06,0.119 -7.7615,-0.0814 -10.7715,-1.27344 -4.97,-1.966 -14.2192,-2.49569 -18.4492,-1.05469 -4.56,1.553 -18.7109,1.29088 -17.7109,-0.32812 0.19,-0.313 2.2312,-0.56836 4.5312,-0.56836 2.64,0 5.4002,-0.48064 7.4902,-1.30664 1.82,-0.719 4.4003,-1.31141 5.7403,-1.31641 1.33,-0.005 4.239,-0.57839 6.459,-1.27539 3.65,-1.146 4.77,-1.20298 11.75,-0.58398 4.24,0.376 9.0404,0.70642 10.6504,0.73242 4.32,0.071 11.1905,-1.35203 13.0605,-2.70703 3.21,-2.33 5.8492,-3.34375 8.6992,-3.34375 3.13,0 5.0008,-1.28745 3.5508,-2.43945 -0.46,-0.358 -3.27,-0.82983 -6.25,-1.04883 -2.98,-0.219 -5.7008,-0.57506 -6.0508,-0.78907 -1.81,-1.12298 1.0807,-1.60876 9.7207,-1.63476 5.27,-0.015 10.9096,-0.35491 12.5196,-0.75391 1.62,-0.4 10.8705,-0.90123 20.5605,-1.11523 L 1280,532.11914 V 465.71094 1.17969 C 1280,0.52515 1279.4729,0 1278.8184,0 Z M 1244.3906,511.90039 c 0.72,0.129 1.9693,0.23619 2.7793,0.24219 0.81,0.005 1.4707,0.30311 1.4707,0.66211 0,0.373 -1.9603,0.65234 -4.5703,0.65234 -2.52,0 -4.5703,-0.27337 -4.5703,-0.60937 0,-0.708 2.9906,-1.28627 4.8906,-0.94727 z m -2.3965,25.85547 c -0.7102,6.5e-4 -1.2746,0.14321 -1.4746,0.4707 -0.57,0.91701 5.2404,6.84135 6.1504,6.27735 0.92,-0.571 0.8299,-3.77805 -0.1601,-5.12305 -0.6807,-0.93775 -2.9532,-1.62642 -4.5157,-1.625 z m 20.4063,0.70508 c -2.5881,0.0129 -3.4871,0.22742 -3.8809,0.70117 -1.87,2.253 1.351,4.36294 4.711,3.08594 1.29,-0.49 2.1986,-0.48161 3.1386,0.0254 0.37,0.197 1.0103,0.33439 1.7403,0.40039 0.73,0.066 1.5608,0.0589 2.3008,-0.0371 1.49,-0.192 4.3989,-0.54797 6.4589,-0.79297 1.56,-0.185 2.5509,-0.42189 3.1309,-0.71289 v -1.55078 c -0.91,-0.467 -3.3694,-0.6275 -10.8594,-0.9375 -3.0262,-0.12487 -5.1874,-0.18936 -6.7402,-0.18164 z m -134.2109,7.67188 c 1.26,0 2.291,0.29334 2.291,0.65234 0,0.36 -1.031,0.6543 -2.291,0.6543 -1.26,0 -2.2793,-0.2943 -2.2793,-0.6543 0,-0.359 1.0193,-0.65235 2.2793,-0.65234 z m -26.2149,0.0469 c 0.6613,0.1255 1.3346,0.45328 1.7246,0.92578 1.29,1.557 0.3004,2.94922 -2.0996,2.94922 -1.22,0 -4.4294,1.14228 -7.3594,2.61328 -4.02,2.024 -6.1393,2.75686 -7.8593,2.50586 -0.57,-0.083 -1.1007,-0.27736 -1.6407,-0.56836 -2.05,-1.093 -1.4907,-2.17975 2.2793,-4.46875 2.62,-1.59 4.7896,-2.31105 8.2696,-2.74805 2.59,-0.326 4.861,-0.74182 5.041,-0.92382 0.335,-0.3345 0.9833,-0.41066 1.6445,-0.28516 z m -23.834,3.96289 c 1.2588,0.0377 2.3238,0.41641 2.9688,1.12891 1.05,1.164 0.9609,1.2774 -2.0391,2.5664 -1.72,0.742 -5.66,1.87082 -8.75,2.50782 -2.66,0.548 -4.0808,0.82217 -5.0508,0.82617 -0.96,0.004 -1.4693,-0.26192 -2.2793,-0.79492 -1.91,-1.252 -2.2697,-3.3568 -0.6797,-3.9668 0.57,-0.218 2.989,-0.40978 5.379,-0.42578 2.4,-0.017 5.2403,-0.43178 6.3203,-0.92578 1.42,-0.6505 2.8721,-0.95377 4.1308,-0.91602 z m -57.5508,1.27734 c 0.06,-0.033 0.5707,0.11989 1.1407,0.3379 1.63,0.62799 1.2296,2.82601 -0.6504,3.54101 -0.81,0.312 -2.0194,0.49431 -3.3594,0.57031 -4.03,0.228 -9.3203,-0.51125 -9.3203,-1.65625 0,-0.611 0.8695,-0.89629 2.7695,-0.90429 2.08,-0.01 8.1899,-1.23468 9.4199,-1.88868 z m 110.5801,0.59375 c 1.05,0 1.9199,0.2943 1.9199,0.6543 0,0.359 -1.05,0.65234 -2.33,0.65235 -1.38,0 -2.16,-0.26335 -1.92,-0.65235 0.22,-0.36 1.2701,-0.6543 2.3301,-0.6543 z m -85.8906,0.55274 c 0.72,0.235 2.9815,0.42773 5.0215,0.42773 2.05,0 4.0397,0.31999 4.4297,0.70899 0.91,0.905 0.2188,2.73259 -1.2012,3.18359 -0.6,0.192 -2.0488,1.22397 -3.2188,2.29297 -1.97,1.803 -4.6314,2.86888 -7.4414,3.04687 -0.94,0.06 -1.8896,0.02 -2.8496,-0.12304 -2.68,-0.403 -2.9004,-0.58005 -2.9004,-2.37305 0,-1.658 -0.3789,-2.09061 -2.6289,-2.97461 -1.44,-0.569 -2.5206,-1.35314 -2.3906,-1.74414 0.13,-0.39 1.9696,-0.92073 4.0996,-1.17773 2.12,-0.256 4.7403,-0.74113 5.8203,-1.07813 1.07,-0.338 2.5398,-0.42445 3.2598,-0.18945 z m -205.18164,2.78125 c 0.28575,0.125 0.51728,0.49456 0.67578,1.10156 0.382,1.462 -0.53555,4.06055 -1.43555,4.06055 -0.737,0 -0.94128,-4.08997 -0.23828,-4.79297 0.3735,-0.374 0.7123,-0.49414 0.99805,-0.36914 z m -823.667972,4.5293 c 0.359,0 1.094212,0.28857 1.632812,0.64257 0.8705,0.572 0.8705,0.71511 0,1.28711 -0.5386,0.354 -1.273812,0.64258 -1.632812,0.64258 -0.3591,0 -1.09226,-0.28858 -1.63086,-0.64258 -0.8704,-0.572 -0.8704,-0.71511 0,-1.28711 0.5386,-0.354 1.27176,-0.64257 1.63086,-0.64257 z m 1033.419912,0.5996 4.5703,0.41602 c 2.51,0.229 4.7906,0.61733 5.0606,0.86133 0.26,0.244 0.1194,1.38606 -0.3106,2.53906 -0.78,2.072 -0.7308,2.41394 1.1192,6.83594 0.39,0.934 0.1313,1.14272 -1.3887,1.13672 -3.42,-0.013 -6.8709,-0.82722 -7.2109,-1.69922 -0.18,-0.474 0.291,-1.7272 1.041,-2.7832 1.83,-2.574 1.7302,-3.26032 -0.7598,-5.44532 z m -1005.402334,1.3906 c 0.6881,-0.029 1.074321,0.12675 0.857422,0.34375 -0.108402,0.109 -0.302497,0.16969 -0.529297,0.17969 -0.2268,0.009 -0.486957,-0.032 -0.722657,-0.12696 -0.5208,-0.208 -0.366068,-0.36548 0.394532,-0.39648 z m 792.570314,0.67773 c 0.63375,-0.12525 1.56844,0.28343 2.77344,1.23243 0.913,0.719 2.09685,1.30664 2.63086,1.30664 0.78998,0 0.8182,0.18447 0.1582,0.98047 -0.598,0.721 -1.66463,1.00693 -2.76563,0.96093 -1.835,-0.075 -3.76367,-1.07276 -3.76367,-2.50976 0,-1.187 0.33305,-1.84546 0.9668,-1.97071 z m -48.54492,0.97266 c 0.31987,0.18525 0.57617,0.53917 0.57617,0.95117 0,0.338 -0.44247,0.61524 -0.98047,0.61524 -1.01,0 -1.29655,-0.77182 -0.56055,-1.50782 0.2605,-0.261 0.64497,-0.24384 0.96485,-0.0586 z m 300.42574,1.44336 c -0.3395,0.007 -0.6343,0.0375 -0.8593,0.0937 -1.16,0.29 -1.6899,0.92073 -1.8399,2.17773 -0.27,2.373 1.6517,3.06689 8.9317,3.2129 5.5,0.11 8.109,-0.58102 11.039,-2.91602 2.43,-1.947 -5.0092,-3.42999 -9.1992,-1.83398 -1.08,0.40999 -2.5412,0.33724 -4.4512,-0.21876 -1.1775,-0.34275 -2.6025,-0.53596 -3.6211,-0.51562 z m -14.5761,2.27148 c 1.0479,0.13808 1.9807,0.46638 2.6582,1.01563 l 1.4804,1.20508 -3.5312,0.43359 c -1.94,0.237 -4.8206,0.88159 -6.3906,1.4336 -1.57,0.54899 -2.5591,0.75918 -3.0391,0.61718 -0.48,-0.142 -0.4302,-0.63614 0.09,-1.49414 1.41,-2.3115 5.5886,-3.62517 8.7325,-3.21094 z m -502.43949,0.5918 c 1.515,0.148 2.0586,0.52755 2.0586,1.43555 0,0.68 -0.53064,1.56194 -1.18164,1.96094 -0.241,0.147 -0.45054,0.24982 -0.64454,0.29882 -0.582,0.148 -1.03078,-0.17232 -1.80078,-1.11132 -1.599,-1.951 -1.05964,-2.83899 1.56836,-2.58399 z m 490.98629,5.10156 c 0.56,0 1.0215,0.13107 1.0215,0.28907 0,0.345 -0.3199,0.58887 -0.6699,0.67187 -0.36,0.083 -0.7709,0.004 -0.9609,-0.29687 -0.22,-0.366 0.049,-0.66407 0.6093,-0.66407 z m -309.07027,3.40039 c -1.15551,0.0147 -1.50485,0.27133 -1.73047,0.86133 -0.608,1.584 0.87419,2.25196 4.99219,2.25196 7.096,0 6.97393,-2.16644 -0.16407,-2.89844 -1.42012,-0.14588 -2.40435,-0.22364 -3.09765,-0.21485 z m -34.54492,1.83399 c -1.43974,0.0112 -2.73097,0.2173 -2.9961,0.64648 -0.807,1.307 0.47666,1.96094 3.84766,1.96094 3.803,0 4.66622,-0.41933 3.57422,-1.73633 -0.47813,-0.57656 -2.57469,-0.8855 -4.42578,-0.87109 z m -361.32422,2.1875 c -2.68496,0.0244 -4.36047,0.37664 -7.10547,1.30664 -7.289,2.469 -7.1491,3.75205 0.5039,4.62305 2.154,0.245 4.82651,0.73012 5.9375,1.07812 0.71801,0.226 1.51615,0.31563 2.49415,0.26563 0.978,-0.051 2.13507,-0.24208 3.58007,-0.58008 5.896,-1.377 7.27304,-2.90452 4.70704,-5.22852 -0.91101,-0.825 -2.75754,-1.19067 -7.01954,-1.38867 -1.19625,-0.0555 -2.20267,-0.0843 -3.09765,-0.0762 z m 238.15625,0.0371 c -0.77443,-0.006 -1.89846,0.25398 -3.50977,0.76367 -1.874,0.593 -5.36445,0.87783 -9.81445,0.79883 -6.607,-0.116 -8.49219,0.1962 -8.49219,1.4082 0,1.23 4.53516,1.98633 11.91016,1.98633 8.635,0 11.82412,-0.99708 11.45312,-3.58008 -0.13275,-0.9225 -0.55118,-1.36952 -1.54687,-1.37695 z m 21.81445,0.46875 c -0.67113,0.003 -1.28736,0.18169 -1.53711,0.58594 -0.254,0.412 -0.16659,1.04334 0.19141,1.40234 0.238,0.237 0.58937,0.37941 0.98437,0.44141 1.185,0.188 2.75391,-0.34999 2.75391,-1.20899 0,-0.74125 -1.27402,-1.22525 -2.39258,-1.2207 z m 355.50781,0.23047 c -8.48479,-0.0459 -11.37325,0.15564 -12.90625,0.71289 -3.683,1.336 -13.32589,1.79087 -22.21289,1.04687 -6.596,-0.552 -8.31283,-0.48903 -11.42383,0.41797 -2.955,0.861 -6.86992,1.07099 -20.29492,1.08399 -14.26,0.015 -16.6604,0.15609 -16.8164,0.99609 -0.126,0.677 1.28364,1.54106 4.55664,2.78906 4.129,1.574 5.03243,1.71041 7.02343,1.06641 1.516,-0.49 8.38035,-0.69628 20.40235,-0.61328 12.352,0.086 18.84892,-0.11577 20.41992,-0.63477 1.776,-0.587 2.78625,-0.57794 4.40625,0.0391 2.053,0.781 8.91597,1.38432 26.41797,2.32032 4.758,0.255 8.65039,0.66796 8.65039,0.91796 0,0.25 -6.09492,0.65916 -13.54492,0.91016 -7.45,0.252 -14.72221,0.73045 -16.15821,1.06445 -1.437,0.333 -9.83406,0.6131 -18.66406,0.6211 -12.144,0.013 -16.82479,0.24579 -19.21679,0.96679 -1.73901,0.52401 -5.23644,1.14205 -7.77344,1.37305 -2.537,0.231 -6.22913,0.87664 -8.20313,1.43164 -2.857,0.802 -5.54892,0.9218 -13.16992,0.5918 -10.785,-0.467 -13.76203,-0.14302 -13.45703,1.45898 0.257,1.35 6.33691,1.84786 24.50391,2.00586 9.263,0.081 13.89814,-0.13293 15.49414,-0.71093 1.949,-0.705 2.96448,-0.63879 7.02148,0.44921 3.889,1.044 6.91136,1.27149 16.81836,1.27149 11.576,0 12.07617,0.0532 12.07617,1.28516 0,0.90599 -0.67615,1.48593 -2.28515,1.96093 -3.443,1.016 -4.12785,1.59136 -3.21485,2.69336 0.58,0.699 2.64053,0.92188 8.51953,0.92188 h 7.75196 v -2.8086 c 0,-1.545 0.35415,-3.1647 0.78515,-3.5957 1.19,-1.191 12.03839,-1.00742 15.77539,0.26758 2.502,0.853 3.61913,0.91517 5.95313,0.32617 1.58,-0.398 6.63633,-0.72461 11.23633,-0.72461 6.456,0 9.40159,-0.30127 12.93159,-1.32227 4.81,-1.393 7.7404,-1.28998 11.8204,0.41602 2.59,1.083 8.5784,1.18736 11.1484,0.19336 1.01,-0.392 4.6704,-0.87427 8.1504,-1.07227 3.47,-0.198 6.6596,-0.57865 7.0996,-0.84765 1.13,-0.697 0.1509,-1.93899 -1.5391,-1.95899 -1.4,-0.017 -4.3807,-1.01879 -15.4707,-5.21679 -5.49,-2.079 -5.7001,-2.10355 -19.9101,-2.43555 -13.95003,-0.325 -19.23592,-1.07845 -15.33792,-2.18945 0.897,-0.256 7.36038,-0.49711 14.35942,-0.53711 9.45,-0.054 13.57,-0.33308 16,-1.08008 2.68,-0.826 5.3185,-0.92655 14.7285,-0.56055 8.53,0.331 11.8607,0.24149 12.9707,-0.35351 0.99,-0.532 1.2698,-1.01913 0.8398,-1.45313 -0.93,-0.925 -40.9599,-2.97133 -65.75388,-3.36133 -4.22875,-0.0665 -7.67955,-0.10775 -10.50782,-0.12304 z m -591.85351,0.34961 c -0.5661,0.01 -1.11696,0.14776 -1.39258,0.42382 -0.72,0.72 -0.49605,1.36197 0.62695,1.79297 0.299,0.115 0.63971,0.12455 0.97071,0.0606 0.996,-0.191 1.92567,-1.04394 1.51367,-1.71094 -0.23569,-0.38193 -0.99091,-0.57902 -1.71875,-0.5664 z m 676.26951,0.125 c -0.2462,0.005 -0.4832,0.0941 -0.6738,0.2832 -0.85,0.853 -0.4401,1.53906 0.9199,1.53906 0.76,0 1.2396,-0.34334 1.0996,-0.77734 -0.22,-0.65656 -0.804,-1.05569 -1.3457,-1.04492 z m 11.125,0.13476 c -1.2054,-0.006 -2.0815,0.0295 -2.289,0.12305 -1.6,0.721 -0.7711,2.1677 1.6289,2.8457 2.19,0.616 3.9313,0.97961 5.3613,1.09961 1.43,0.12 2.5487,-0.003 3.4687,-0.35742 1.63,-0.624 2.9916,-2.34766 2.3516,-2.97266 -0.33,-0.32625 -6.9051,-0.71958 -10.5215,-0.73828 z m -747.791,0.0137 c -2.02679,0.0142 -3.68343,0.12328 -4.42968,0.34766 -5.378,1.62 -7.6991,1.95084 -13.7461,1.96484 -6.963,0.017 -9.11164,0.73983 -8.68164,2.92383 0.22,1.115 1.22364,1.1835 16.18164,1.0625 12.499,-0.102 16.4533,-0.34328 18.2793,-1.11328 1.541,-0.65 3.26851,-0.84327 5.10351,-0.57226 2.637,0.389 2.7754,0.32957 2.77539,-1.23243 0,-1.341 -0.45026,-1.77198 -2.44726,-2.33398 -2.321,-0.65313 -8.57621,-1.07816 -13.03516,-1.04688 z m 245.66797,0.35157 c -0.4703,-0.003 -0.94151,0.13059 -1.24414,0.43359 -0.681,0.681 0.18292,1.54102 1.54492,1.54102 0.697,0 1.26563,-0.43952 1.26563,-0.97852 0,-0.60625 -0.78257,-0.99092 -1.56641,-0.99609 z m -525.636717,2.37302 c 1.991063,0.0281 4.422385,0.37394 6.177735,1.02344 0.8577,0.317 1.388387,0.74803 1.179687,0.95703 -0.142,0.142 -0.894859,0.18325 -1.943359,0.15625 -3.1454,-0.081 -8.957032,-0.781 -8.957032,-1.25 0,-0.625 1.551907,-0.91484 3.542969,-0.88672 z m 455.535157,0.26563 c -5.558,-0.008 -6.77933,0.17111 -7.11133,1.03711 -0.559,1.459 0.54559,1.96483 5.5586,2.54883 4.13399,0.482 6.51934,0.6944 7.90234,0.5664 1.384,-0.129 1.76662,-0.59661 1.89062,-1.47461 0.121,-0.857 -0.17429,-1.80828 -0.65429,-2.11328 -0.481,-0.305 -3.89394,-0.55945 -7.58594,-0.56445 z m -320.53711,0.74609 c -1.20014,-0.007 -2.38938,0.22914 -3.40625,0.74414 -2.549,1.291 -2.15253,3.63083 0.98047,5.79883 1.571,1.087 3.1494,1.68234 4.5664,1.77734 1.41801,0.094 2.67376,-0.31337 3.59376,-1.23437 1.48,-1.481 1.58881,-2.16903 0.63281,-3.95703 -1.03263,-1.93188 -3.72688,-3.11419 -6.36719,-3.12891 z m -123.851562,1.85938 c 0.897598,0 1.630859,0.27723 1.630859,0.61523 0,0.704 -0.599872,1.13611 -1.388672,1.12109 -0.2629,-0.005 -0.546637,-0.0589 -0.835937,-0.16992 -1.5939,-0.613 -1.232351,-1.5664 0.59375,-1.5664 z m 546.740232,1.35937 c -0.39575,0 -0.79133,0.30547 -1.29883,0.91797 -0.653,0.788 -0.6059,1.04995 0.2461,1.37695 0.29,0.111 0.67073,0.16797 1.05273,0.16797 0.382,0 0.76374,-0.057 1.05274,-0.16797 0.853,-0.327 0.89909,-0.58895 0.24609,-1.37695 -0.5075,-0.6125 -0.90308,-0.91797 -1.29883,-0.91797 z m 35.69141,0.043 c -0.7167,0.0202 -1.16591,0.41731 -1.42578,1.23828 -0.465,1.465 0.0383,2.36627 1.07031,2.32227 0.344,-0.014 0.74641,-0.13405 1.19141,-0.37305 1.748,-0.936 1.49584,-2.88716 -0.41016,-3.16016 -0.15156,-0.0217 -0.29306,-0.0311 -0.42578,-0.0273 z m -532.43946,2.08984 c -1.13848,-0.0308 -2.772761,0.14543 -5.189448,0.4668 -4.5938,0.611 -4.975891,0.79286 -4.462891,2.13086 0.2476,0.646 2.122069,1.05877 6.292969,1.38477 5.6931,0.446 5.97902,0.54442 6.91602,2.35742 1.155,2.238 2.80317,3.23737 5.32617,3.23437 2.766,-0.003 8.03906,-3.48368 8.03906,-5.30468 0,-1.093 -2.16878,-2.5344 -3.80078,-2.5254 -0.961,0.005 -3.50625,0.55847 -5.65625,1.23047 l -3.9082,1.22071 -0.66211,-2.04688 c -0.47563,-1.47312 -0.99706,-2.09719 -2.89454,-2.14844 z m 28.97852,0.64454 c -0.61584,-0.0127 -1.17959,0.24403 -1.58984,0.73828 -1.207,1.456 -0.004,3.90312 2.74023,5.57812 1.304,0.796 3.46577,1.23478 5.88477,1.30078 2.42,0.065 5.0975,-0.24245 7.4375,-0.93945 1.747,-0.52 3.99504,-1.11617 4.99804,-1.32617 2.082,-0.434 3.05222,-2.15372 1.69922,-3.01172 -0.502,-0.317 -2.96842,-0.59423 -5.48242,-0.61524 -4.715,-0.04 -12.68159,-0.89809 -15.05859,-1.62109 -0.21325,-0.065 -0.42363,-0.0993 -0.62891,-0.10351 z m 576.84961,0.57617 c -2.33112,-0.0104 -4.63909,0.10043 -5.93359,0.33593 -2.616,0.47501 -5.875,3.29885 -5.875,5.08985 0,1.844 1.60862,2.84644 4.26562,2.89844 1.595,0.032 3.56597,-0.27908 5.79297,-0.95508 1.763,-0.536 4.31678,-0.97461 5.67578,-0.97461 3.281,0 6.49711,-2.59709 5.41211,-4.3711 -0.399,-0.65099 -1.86762,-1.38576 -3.26562,-1.63476 -1.388,-0.247 -3.74115,-0.3783 -6.07227,-0.38867 z m -62.33789,1.80469 c -0.4703,-0.003 -0.94152,0.13059 -1.24414,0.43359 -0.681,0.681 0.18192,1.54297 1.54492,1.54297 0.697,0 1.26563,-0.44147 1.26563,-0.98047 0,-0.60625 -0.78257,-0.99063 -1.56641,-0.99609 z m 12.06445,0.68359 c -0.72762,-0.005 -1.42556,0.2177 -1.72656,0.70508 -0.244,0.395 0.17945,1.34251 0.93945,2.10351 0.622,0.623 0.99427,0.9441 1.32227,0.9961 0.328,0.051 0.61341,-0.16614 1.06641,-0.61914 0.56999,-0.571 0.82198,-1.48252 0.58398,-2.10352 -0.26438,-0.68906 -1.25004,-1.07504 -2.18555,-1.08203 z m 77.1836,0.63867 c -0.359,0 -1.18594,0.58764 -1.83594,1.30664 -0.649,0.719 -0.88634,1.3086 -0.52735,1.3086 0.35901,0 1.18399,-0.5896 1.83399,-1.3086 0.65,-0.719 0.8883,-1.30664 0.5293,-1.30664 z m 61.61132,0.15625 c -3.41004,0.0149 -4.52203,0.22523 -4.91015,0.69336 -0.587,0.708 -0.50219,1.1352 0.38281,1.9082 2.006,1.751 3.27319,2.35422 5.61719,2.19922 0.781,-0.051 1.67958,-0.18853 2.76758,-0.39453 2.795,-0.528 6.72359,-0.63136 11.93359,-0.31836 8.548,0.514 10.52539,0.20447 10.52539,-1.64453 0,-1.625 -1.28147,-1.79348 -17.35547,-2.27148 -4.04025,-0.12 -6.91491,-0.18085 -8.96094,-0.17188 z m -117.0957,0.0898 c -0.15198,0.003 -0.2993,0.0628 -0.43164,0.19532 -0.236,0.236 -0.42969,1.11608 -0.42969,1.95507 0,0.928 0.41753,1.44015 0.89453,1.49415 0.476,0.053 1.01205,-0.34996 1.24805,-1.25196 0.28488,-1.08981 -0.54897,-2.40904 -1.28125,-2.39258 z m -45.38672,0.44532 c -0.26388,0.0138 -0.48739,0.14906 -0.73633,0.39843 -0.887,0.888 -0.39592,2.17774 0.83008,2.17774 1.63,0 2.43263,-1.28149 1.26563,-2.02149 -0.61425,-0.38981 -1.0201,-0.57238 -1.35938,-0.55468 z m 196.08594,1.33007 c -0.63607,0.0133 -0.78242,0.30625 -0.64258,1.03126 0.138,0.71899 0.84167,1.12673 1.51367,1.17773 0.671,0.052 1.3086,-0.25489 1.3086,-0.96289 0,-0.539 -0.68639,-1.07631 -1.52539,-1.19531 -0.25922,-0.0367 -0.4762,-0.0545 -0.6543,-0.0508 z m 19.33398,0.59571 c -0.91056,0.005 -1.73654,0.13889 -2.02539,0.42773 -0.71,0.711 0.92607,2.18483 2.41407,2.17383 1.872,-0.012 3.29123,-0.98691 2.74023,-1.87891 -0.28559,-0.46312 -1.79808,-0.73002 -3.12891,-0.72265 z m 208.42577,1.41601 c -0.7689,0.0151 -1.4344,0.17286 -1.6406,0.50586 -0.4,0.647 1.2304,1.50297 2.6504,1.66797 0.48,0.055 0.9295,0.0343 1.2695,-0.0977 0.56,-0.214 0.8995,-0.72 0.7695,-1.125 -0.2,-0.60625 -1.7672,-0.97637 -3.0488,-0.95118 z m -827.02733,6.42383 c -2.106,0 -4.02562,0.1946 -4.26562,0.4336 -1.405,1.407 1.47432,4.14062 4.36133,4.14062 2.45599,0 4.73018,-1.97231 4.11718,-3.57031 -0.286,-0.746 -1.37089,-1.00391 -4.21289,-1.00391 z m 14.88477,0.6543 c -0.676,0 -1.41077,0.29425 -1.63477,0.65625 -0.388,0.63 0.54456,1.1947 1.60156,1.2207 0.352,0.009 0.71969,-0.0429 1.05469,-0.17187 1.308,-0.502 0.58652,-1.70508 -1.02148,-1.70508 z m -69.03906,1.34961 c -0.54351,-0.006 -0.98571,0.30226 -1.22852,0.93554 -0.62,1.61801 0.27328,2.94141 1.98828,2.94141 2.168,0 2.72313,-1.1113 1.32813,-2.6543 -0.72675,-0.80378 -1.47192,-1.21579 -2.08789,-1.22265 z m 263.03124,3.48437 c -0.80911,10e-4 -1.98581,0.21427 -3.69531,0.61524 -2.569,0.603 -3.26367,1.04236 -3.26367,2.06836 0,1.113 0.50647,1.33095 3.48047,1.50195 3.869,0.221 5.50317,-0.64205 5.20117,-2.74805 -0.14131,-0.98622 -0.5401,-1.43922 -1.72266,-1.4375 z m -62.30859,2.49219 c -0.24543,0.005 -0.48086,0.0941 -0.66992,0.2832 -0.852,0.853 -0.44584,1.53711 0.91016,1.53711 0.76,0 1.24751,-0.34139 1.10351,-0.77539 -0.21862,-0.65656 -0.80381,-1.05569 -1.34375,-1.04492 z" />
</svg>
