<?xml version="1.0" encoding="UTF-8" standalone="no"?>
<!-- Created with Inkscape (http://www.inkscape.org/) -->

<svg
   width="289.22473mm"
   height="146.22418mm"
   viewBox="0 0 289.22473 146.22418"
   version="1.1"
   id="svg6169"
   inkscape:version="1.1.2 (b8e25be833, 2022-02-05)"
   sodipodi:docname="Footer.svg"
   xmlns:inkscape="http://www.inkscape.org/namespaces/inkscape"
   xmlns:sodipodi="http://sodipodi.sourceforge.net/DTD/sodipodi-0.dtd"
   xmlns="http://www.w3.org/2000/svg"
   xmlns:svg="http://www.w3.org/2000/svg">
  <sodipodi:namedview
     id="namedview6171"
     pagecolor="#ffffff"
     bordercolor="#666666"
     borderopacity="1.0"
     inkscape:pageshadow="2"
     inkscape:pageopacity="0.0"
     inkscape:pagecheckerboard="0"
     inkscape:document-units="mm"
     showgrid="false"
     inkscape:zoom="0.763461"
     inkscape:cx="478.74089"
     inkscape:cy="210.88176"
     inkscape:window-width="1920"
     inkscape:window-height="1017"
     inkscape:window-x="-8"
     inkscape:window-y="-8"
     inkscape:window-maximized="1"
     inkscape:current-layer="layer1" />
  <defs
     id="defs6166" />
  <g
     inkscape:label="Layer 1"
     inkscape:groupmode="layer"
     id="layer1"
     transform="translate(21.930912,-92.889073)">
    <g
       id="g5575"
       transform="translate(-38.194002,24.234907)">
      <path
         id="path9327-8-6"
         style="fill:#4f4f4f;fill-opacity:1;stroke:none;stroke-width:0.999999px;stroke-linecap:butt;stroke-linejoin:miter;stroke-opacity:1"
         d="M 88.697266,812.13086 1154.5996,812.11914 V 474.22852 c -9.5309,-4.82571 -22.4277,-9.61923 -32.4453,-14.1875 -5.4221,-2.47272 -10.1011,-6.03955 -15.5664,-8.00196 -2.6116,-0.9377 -9.667,0.36698 -12.5274,0.8711 -1.5574,0.27477 -3.3209,-0.45912 -4.8613,-0.11133 -8.9225,2.01411 -17.908,2.02716 -26.7265,4.01758 -3.7654,0.84997 -7.1271,3.46933 -10.9805,4.14843 -4.5402,0.80009 -16.4629,3.53321 -16.4629,3.53321 -2.5687,0.20636 -7.283,-1.88417 -9.2481,-3.42969 -1.7744,-1.39567 -3.2677,-3.71973 -5.2187,-4.75195 -12.6656,-6.70069 -27.08115,-10.76564 -41.13672,-13.91407 -2.38443,-0.53408 -4.55557,-2.33642 -6.87695,-3.16992 -2.38829,-0.8575 -5.58866,-0.37849 -7.83789,-1.56836 -6.14706,-3.25209 -12.11613,-7.41739 -18.52735,-10.15429 -2.44127,-1.04221 -5.81557,-1.30593 -8.52148,-2.04883 -7.77948,-2.13589 -15.6253,-4.77784 -23.72656,-5.64063 -13.99888,-1.4911 -18.98551,-5.89834 -31.09961,2.75977 -10.0523,5.55152 -20.52525,14.71961 -30.08594,19.22851 -2.39191,1.12812 -11.13244,-2.27451 -12.24805,-1.20898 -0.81702,0.78028 -3.02194,0.96836 -4.20312,1.52539 -4.29755,2.02677 -8.74633,4.14306 -12.07617,1.34375 -7.20828,-7.40727 -17.89006,-12.15425 -25.06836,-17.71484 -4.85269,-4.94189 -8.28772,-5.04132 -13.97852,-6.57422 -2.8049,-0.77001 -5.44939,-2.95519 -7.76953,-4.58008 -2.60799,-1.82661 -5.70216,-2.65477 -8.85156,-2.80859 v -0.002 c -3.14941,-0.15382 -6.35405,0.36662 -9.17774,1.23633 -3.54073,1.11141 -7.269,1.28241 -10.92187,1.60352 -5.69492,0.50071 -11.98812,-1.16267 -17.59766,-0.17383 -6.08167,1.07172 -11.91356,4.10511 -17.75195,6.54101 -6.07004,2.53251 -13.19525,3.87633 -18.92188,6.97657 -7.78227,4.21288 -17.00996,6.98622 -25.45898,9.375 -6.90346,1.95171 -14.2194,2.87889 -21.18359,4.60742 -10.28962,3.56099 -21.341,2.78978 -30.91016,4.61719 -9.91778,1.96599 -20.34869,4.31502 -30.45703,5.09179 -2.99603,0.23018 -6.04108,-0.0114 -9.03711,0.25391 -2.28442,0.20069 -5.17874,0.62545 -7.41992,0.29297 -4.06829,-0.60382 -7.77306,-1.69473 -11.75196,-2.58594 -5.14295,-1.152 -10.59122,0.38782 -15.73632,-0.5918 -4.26308,-0.81157 -10.72878,-1.10595 -15.04493,-0.3457 -5.29406,0.9329 -11.09417,1.74731 -16.29492,3.5625 -3.19755,1.11602 -5.99636,2.67058 -9.33984,3.25977 -4.75223,0.83743 -10.25248,0.3383 -15.05078,-0.11524 -9.28222,-0.87779 -17.9821,-3.91822 -26.4668,-7.32422 -11.55398,-6.109 -20.14401,-7.19101 -31.12891,-6.04101 -3.71833,0.37829 -7.42841,2.59259 -10.9707,3.68359 -3.43759,1.05868 -7.12286,1.74394 -10.49023,3.00195 -3.06743,1.14599 -6.8064,2.82331 -9.59766,4.41211 -3.19317,1.8175 -16.33437,4.51603 -20.26172,4.86133 -7.19108,0.6322 -14.36506,0.92331 -21.57031,1.35742 -1.61348,0.0971 -6.99772,-1.18327 -10.40039,-0.93359 -4.2689,0.3137 -8.77181,5.49119 -13.30664,4.55859 -2.87362,-0.59089 -27.227,-5.25393 -29.52344,-5.31054 -7.82396,-0.19465 -10.31093,4.66357 -15.67578,6.81836 -4.98595,2.00262 -10.04966,3.40211 -15.16797,4.97851 -9.62918,2.96591 -20.27661,1.74819 -30.125,0.69922 -2.80029,-0.2982 -5.49352,-1.46701 -8.29688,-1.8125 -1.79847,-0.22148 -5.26848,2.94375 -8.00781,2.88086 0,0 -4.03403,0.0113 -6.00781,-0.59961 -3.36457,-1.04549 -5.91379,-2.91255 -9.33789,-3.97656 -2.59015,-0.80482 -5.63387,-0.67151 -8.3125,-1.11719 -4.15045,-0.69052 -8.32658,-2.69375 -12.17188,-4.44727 -1.52624,-0.69607 -2.48396,-1.94104 -3.87109,-2.86914 -2.15535,-1.44219 -4.64673,-2.13587 -6.87109,-3.40039 -0.78819,-0.44798 -1.77876,-1.4682 -2.74024,-1.68359 -4.35719,-0.97603 -8.84488,0.954 -13.2207,0.85352 -1.97446,-0.045 -4.06087,0.10283 -6.01953,-0.13868 -3.24987,-0.40059 -6.83493,-2.55943 -10.14258,-2.08593 -1.14425,0.16403 -2.2842,0.74122 -3.49414,0.84765 -2.8272,0.24832 -8.17047,-1.84791 -11.78906,-0.9668 -4.38278,1.06708 -9.34805,3.68022 -13.5586,5.47852 -9.62392,4.11052 -19.333443,8.23642 -29.273434,11.59375 z"
         transform="scale(0.26458333)" />
      <g
         id="g5569">
        <path
           id="path9329"
           style="fill:#000000;fill-opacity:1;stroke:none;stroke-width:0.999999px;stroke-linecap:butt;stroke-linejoin:miter;stroke-opacity:1"
           d="M 61.466797,812.13867 H 1154.5996 v -422.7539 c -1.4489,-0.72443 -6.2136,1.51665 -8.0469,2.25 -9.9995,3.99979 -20.4087,6.87606 -30.25,11.25 -9.3446,4.15317 -19.3814,7.31475 -29,10.75 -2.7688,0.98887 -5.7561,1.19468 -8.5,2.25 -6.2307,2.39644 -12.0459,5.76832 -18.25,8.25 -4.4159,1.76632 -9.2801,2.53076 -13.75,4.25 -21.4921,8.26616 -45.0402,22.57527 -65.91403,32.02734 -8.33117,2.08278 -19.0505,7.41516 -28.5,10.25 -14.54857,4.36456 -28.66132,10.08182 -43.25,14.25 -5.85211,1.67206 -11.6899,7.50312 -17.08594,10.20117 -2.16204,1.08098 -4.18783,3.09392 -6.5,4.25 -6.24253,3.12129 -13.16846,4.62581 -19.5,7.75 -5.45397,2.72697 -26.53489,4.46721 -34.79296,5.38477 -3.23301,0.35905 -9.44486,1.11103 -12.5,0.5 -2.29902,-0.45993 -6.06259,-0.98749 -8.5,-0.5 -1.93573,0.38713 -2.85459,1.42731 -4.5,2.25 -5.94554,2.97278 -58.51129,19.64024 -70.70704,20.36523 -14.4901,0.34243 -30.98544,9.10854 -59.12304,10.76367 -6.01047,0.35339 -9.37001,-4.30924 -31.24414,-10.99609 -3.76592,-1.88296 -30.87757,-7.3319 -33.13282,-10.71484 -1.73416,-2.60126 -16.5489,-13.76631 -19.5,-14.75 -4.55644,-1.51881 -9.39173,-3.57837 -14,-4.5 -4.21254,-0.84254 -8.76685,-0.89528 -13,-1.5 -3.41967,-0.48851 -6.2452,-2.1238 -9.75,-3 -5.35094,-1.33773 -14.06443,2.00586 -19.5,2.5 -5.79567,0.52686 -12.29091,0.22339 -18,-1 -9.7336,-2.08581 -18.94829,-6.75759 -27.5,-11.75 -2.40869,-1.01904 -4.67017,-2.57005 -7.25,-3 -10.62413,-1.77068 -25.12133,-0.56065 -35,-5.5 -4.27831,-2.13914 -9.02919,-3.71168 -13.5,-5.5 -7.81315,-3.12526 -15.3316,-7.09182 -23,-10.5 -11.88476,-5.28212 -23.44782,-12.36201 -36,-15.5 -10.10169,-2.52548 -20.43945,-3.98488 -30.5,-6.5 -5.42063,-1.35515 -10.93889,-3.68781 -16.25,-4.75 -6.0291,-1.20582 -12.63629,-2.29546 -18.5,-4.25 -4.2475,-1.41585 -8.73567,-3.14712 -13,-4 -6.31491,-1.26297 -9.07568,-6.26117 -19.5,-7.75 -5.48387,-1.23931 -8.5569,-4.15102 -12.75,-4.75 -7.03748,-1.0054 -14.0836,-1.36674 -21,-2.75 -5.53749,-1.10752 -10.20178,-3.73619 -15.5,-5.25 -3.2632,-0.93241 -6.74083,-1.20681 -10,-1.75 -13.96656,-2.32782 -27.36657,-4.7667 -41.25,-6.75 -2.83475,-0.40498 -5.25469,-1.70091 -8,-2.25 -14.85572,-2.9712 -25.94785,-8.72393 -39,-15.25 -2.1507,-1.07536 -5.40866,-0.8293 -7.75,-2 -2.79647,-1.3982 -5.68209,-3.60801 -9.25,-4.5 -4.00588,-1.0015 -11.03211,0.90595 -12.25,0.5 -1.561953,-0.52273 -3.378578,-0.22975 -4.999996,-0.5 -11.269614,-1.87826 -14.470988,-6.34337 -34.585937,-10.19141 z"
           transform="scale(0.26458333)" />
        <path
           style="fill:#000000;fill-opacity:1;stroke:#000000;stroke-width:0.167478px;stroke-linecap:butt;stroke-linejoin:miter;stroke-opacity:1"
           d="m 269.65909,81.12716 3.7896,0.0591 1.42111,-7.40155 0.88818,7.46078 4.38173,0.29604 c 0,0 4.44095,0.41449 6.69102,-4.55936 l 3.73039,-6.92784 -0.17763,13.61889 c 0,0 0.59212,3.90802 -3.84882,7.22392 -4.44094,3.31591 -7.28314,5.44757 -7.28314,5.44757 l -0.88819,48.96878 h -10.12535 l 0.76976,-42.98832 -7.93448,-6.57259 c 0,0 -3.01984,-2.54614 -2.72378,-9.11874 0.29607,-6.5726 0.11843,-17.94141 0.11843,-17.94141 0,0 4.50313,8.76582 4.75434,9.26825 0.39777,0.64898 1.93668,3.04797 6.43683,3.1664"
           id="path9331"
           sodipodi:nodetypes="ccccccccscccccsccc" />
      </g>
    </g>
  </g>
</svg>
