<?xml version="1.0" encoding="UTF-8" standalone="no"?>
<!-- Created with Inkscape (http://www.inkscape.org/) -->

<svg
   width="578.69751mm"
   height="117.68661mm"
   viewBox="0 0 578.69751 117.68661"
   version="1.1"
   id="svg6169"
   inkscape:version="1.1.2 (b8e25be833, 2022-02-05)"
   sodipodi:docname="Footer Connector.svg"
   xmlns:inkscape="http://www.inkscape.org/namespaces/inkscape"
   xmlns:sodipodi="http://sodipodi.sourceforge.net/DTD/sodipodi-0.dtd"
   xmlns="http://www.w3.org/2000/svg"
   xmlns:svg="http://www.w3.org/2000/svg">
  <sodipodi:namedview
     id="namedview6171"
     pagecolor="#ffffff"
     bordercolor="#666666"
     borderopacity="1.0"
     inkscape:pageshadow="2"
     inkscape:pageopacity="0.0"
     inkscape:pagecheckerboard="0"
     inkscape:document-units="mm"
     showgrid="false"
     inkscape:zoom="0.26992422"
     inkscape:cx="1769.015"
     inkscape:cy="859.50048"
     inkscape:window-width="1920"
     inkscape:window-height="1017"
     inkscape:window-x="-8"
     inkscape:window-y="-8"
     inkscape:window-maximized="1"
     inkscape:current-layer="layer1" />
  <defs
     id="defs6166" />
  <g
     inkscape:label="Layer 1"
     inkscape:groupmode="layer"
     id="layer1"
     transform="translate(219.0951,-78.058709)">
    <g
       id="g6703">
      <path
         id="path5477"
         style="fill:#4f4f4f;fill-opacity:1;stroke:none;stroke-width:0.264583px;stroke-linecap:butt;stroke-linejoin:miter;stroke-opacity:1"
         d="m 349.87361,195.74309 v -91.05232 c -0.64755,0.13839 -1.30251,0.24995 -1.97093,0.31316 -1.26955,0.11999 -2.72481,0.25151 -3.98219,0.03 -0.88461,-0.15589 -1.62513,-0.56669 -2.47117,-0.86196 -1.37601,-0.48027 -2.91066,-0.69627 -4.31136,-0.9431 -1.142,-0.20119 -2.85321,-0.1233 -3.98115,0.0915 -1.36131,0.25918 -2.80231,-0.14773 -4.16306,0.1571 -1.05275,0.23579 -2.03348,0.52444 -3.10989,0.68419 -0.59298,0.088 -1.35826,-0.0243 -1.96267,-0.0775 -0.79272,-0.0696 -1.59835,-0.007 -2.39106,-0.0677 -2.67449,-0.20553 -5.43488,-0.8265 -8.05894,-1.34669 -2.53186,-0.48348 -5.45587,-0.27945 -8.17832,-1.22163 -1.84262,-0.45733 -3.77776,-0.70317 -5.60431,-1.21956 -2.23548,-0.63204 -4.67746,-1.365264 -6.73653,-2.479954 -1.51516,-0.820229 -3.39988,-1.175821 -5.0059,-1.845881 -1.54474,-0.644469 -3.08776,-1.447064 -4.69687,-1.730645 -1.48418,-0.26162 -3.14928,0.177938 -4.65605,0.04548 -0.9665,-0.0849 -1.95345,-0.129667 -2.89026,-0.423746 -1.49421,-0.460222 -3.39019,-0.550556 -4.77025,0.415993 -0.61389,0.429951 -1.31356,1.007565 -2.05569,1.211297 -1.50569,0.40558 -2.41402,0.432425 -3.69797,1.739945 -1.89926,1.471269 -4.72601,2.727719 -6.63318,4.687571 -0.88104,0.74062 -2.05757,0.1802 -3.19464,-0.35606 -0.3125,-0.1474 -0.89592,-0.19662 -1.11208,-0.40307 -0.29517,-0.28192 -2.60776,0.61732 -3.24063,0.31884 -2.5296,-1.19298 -5.30108,-3.617676 -7.96075,-5.086507 -3.20519,-2.290789 -4.52404,-1.125194 -8.22792,-0.730703 -2.14344,0.22828 -4.21935,0.927315 -6.27766,1.492414 -0.71596,0.196559 -1.60874,0.266862 -2.25464,0.542602 -1.6963,0.72412 -3.27557,1.825176 -4.90202,2.685624 -0.5951,0.31483 -1.44239,0.1886 -2.0743,0.41548 -0.61419,0.22053 -1.1881,0.69739 -1.81901,0.83871 -3.71879,0.83303 -7.53301,1.9085 -10.88409,3.68142 -0.5162,0.2731 -0.91129,0.88853 -1.38079,1.25781 -0.51991,0.40891 -1.7673,0.96153 -2.44688,0.90692 0,0 -3.15463,-0.72314 -4.3558,-0.93483 -1.01961,-0.17965 -1.90893,-0.87273 -2.90525,-1.0976 -2.33321,-0.52663 -4.71069,-0.53009 -7.07141,-1.06299 -0.40759,-0.092 -0.87421,0.10263 -1.28622,0.03 -0.75679,-0.13335 -2.62355,-0.47857 -3.31453,-0.23047 -1.44611,0.51919 -2.68402,1.46242 -4.11861,2.11666 -2.65052,1.20869 -5.93669,2.47753 -8.4584,3.7543 v 85.75807 z" />
      <path
         id="path5657"
         style="fill:#4f4f4f;fill-opacity:1;stroke:none;stroke-width:0.264583px;stroke-linecap:butt;stroke-linejoin:miter;stroke-opacity:1"
         d="m 60.52486,195.74309 v -91.05233 c -0.64755,0.1384 -1.30251,0.24995 -1.97093,0.31316 -1.26955,0.11999 -2.72481,0.25152 -3.98219,0.03 -0.88461,-0.15589 -1.62513,-0.5667 -2.47117,-0.86197 -1.37601,-0.48027 -2.91066,-0.69626 -4.31136,-0.94309 -1.142,-0.20119 -2.85321,-0.1233 -3.98115,0.0915 -1.36131,0.25917 -2.80231,-0.14774 -4.16306,0.15709 -1.05275,0.23579 -2.03348,0.52445 -3.10989,0.6842 -0.59298,0.088 -1.35826,-0.0243 -1.96267,-0.0775 -0.79272,-0.0696 -1.59835,-0.007 -2.39106,-0.0677 -2.67449,-0.20553 -5.43488,-0.8265 -8.05894,-1.34669 -2.53186,-0.48348 -5.45587,-0.27945 -8.17832,-1.22163 -1.84262,-0.45733 -3.77776,-0.70317 -5.60431,-1.21956 -2.23548,-0.632036 -4.67746,-1.365266 -6.73653,-2.479956 -1.51516,-0.82023 -3.39988,-1.17582 -5.0059,-1.84588 -1.54474,-0.64447 -3.08776,-1.44706 -4.69687,-1.73064 -1.48418,-0.26162 -3.14928,0.17793 -4.65605,0.0455 -0.9665,-0.0849 -1.95345,-0.12966 -2.89026,-0.42374 -1.49421,-0.46022 -3.39019,-0.55056 -4.77025,0.41599 -0.61389,0.42995 -1.31356,1.00757 -2.05569,1.2113 -1.50569,0.40558 -2.41402,0.43242 -3.69797,1.73994 -1.89926,1.47127 -4.72601,2.72772 -6.63318,4.687566 -0.88104,0.74062 -2.05757,0.18021 -3.19464,-0.35605 -0.3125,-0.1474 -0.89592,-0.19663 -1.11208,-0.40307 -0.29517,-0.28193 -2.60776,0.61732 -3.24063,0.31884 -2.5296,-1.19298 -5.30108,-3.617676 -7.96075,-5.086506 -3.20519,-2.29079 -4.52404,-1.1252 -8.22792,-0.73071 -2.14344,0.22828 -4.21935,0.92732 -6.27766,1.49242 -0.71596,0.19656 -1.60874,0.26686 -2.25464,0.5426 -1.6963,0.72412 -3.27557,1.82517 -4.90202,2.685616 -0.5951,0.31483 -1.44239,0.1886 -2.0743,0.41548 -0.61419,0.22053 -1.1881,0.6974 -1.81901,0.83871 -3.71879,0.83304 -7.53301,1.90851 -10.88409,3.68143 -0.5162,0.2731 -0.91129,0.88852 -1.38079,1.25781 -0.51991,0.4089 -1.7673,0.96153 -2.44688,0.90692 0,0 -3.15463,-0.72314 -4.3558,-0.93483 -1.01961,-0.17965 -1.90893,-0.87274 -2.90525,-1.09761 -2.33321,-0.52662 -4.71069,-0.53008 -7.07141,-1.06298 -0.40759,-0.092 -0.87421,0.10263 -1.28622,0.03 -0.75679,-0.13335 -2.62355,-0.47858 -3.31453,-0.23048 -1.44611,0.51919 -2.68402,1.46243 -4.11861,2.11667 -2.65052,1.20869 -5.93669,2.47752 -8.4584,3.75429 v 85.75807 z" />
      <path
         id="path5472"
         style="fill:#000000;fill-opacity:1;stroke:none;stroke-width:0.999999px;stroke-linecap:butt;stroke-linejoin:miter;stroke-opacity:1"
         d="m 348.13867,-56.033203 c -1.9926,-0.504121 -28.63151,9.418994 -30.46484,10.152344 -2.16745,0.901859 -29.444,17.85427 -31.35156,18.849609 0,0 -15.35671,7.155082 -34.14844,24.7753906 -4.41589,1.76632443 -7.28007,5.5307307 -11.75,7.25 C 218.9317,13.26027 195.3836,27.569415 174.50977,37.021484 c -8.33114,2.082785 -19.05051,7.415128 -28.5,10.25 -14.54858,4.364561 -27.95434,-11.484582 -42.54297,-7.316406 -5.852186,1.672063 -11.689909,7.501165 -17.085941,10.199219 -2.162041,1.08102 -4.187836,3.093918 -6.5,4.25 -6.242532,3.121285 -20.875491,4.194202 -27.207031,7.318359 -5.453972,2.727005 -26.53489,4.46721 -34.792969,5.384766 -3.233007,0.359055 -9.4448563,1.110998 -12.4999996,0.5 -2.299011,-0.459931 -6.0625827,-0.987484 -8.5,-0.5 -1.9357229,0.387137 -2.8546205,1.427272 -4.5,2.25 -5.2823054,2.641172 -47.3627414,16.092063 -65.2382814,19.568359 -2.244397,0.436422 -4.108347,0.715993 -5.46875,0.796875 -14.490066,0.342425 -26.389708,5.573347 -54.527348,7.228516 -6.01043,0.353386 -13.96575,-0.774084 -35.83984,-7.460938 -0.74203,-0.371149 -13.08057,2.801456 -14.83008,3.56836 -7.1297,3.125102 -16.20864,0.534743 -18.01953,-2.181641 -1.73416,-2.60126 -9.83207,-3.867865 -12.7832,-4.851562 -4.55641,-1.518804 -9.3917,-3.578363 -14,-4.5 -4.21259,-0.842533 -8.76682,-0.895276 -13,-1.5 -3.41968,-0.488504 -6.24521,-2.123793 -9.75,-3 -5.35094,-1.337726 -14.06444,2.005864 -19.5,2.5 -5.79568,0.526866 -12.29091,0.223357 -18,-1 -9.73361,-2.085808 -18.94829,-6.757622 -27.5,-11.75 -2.40869,-1.019074 -4.67017,-2.570079 -7.25,-3 -10.62414,-1.770709 -25.1213,-0.560649 -35,-5.5 -4.27831,-2.139137 -9.0292,-3.711679 -13.5,-5.5 -7.81315,-3.125254 -15.33161,-7.091811 -23,-10.5 -11.88476,-5.282117 -23.44781,-12.362025 -36,-15.5 -10.1017,-2.525481 -20.43947,-3.984876 -30.5,-6.5 -5.42064,-1.35515 -10.9389,-3.687802 -16.25,-4.75 -6.0291,-1.205821 -12.63629,-2.295455 -18.5,-4.25 -4.24751,-1.4158492 -8.73564,-3.14715 -13,-4.0000004 -6.31491,-1.2629669 -9.07569,-6.2611685 -19.5,-7.74999998 -5.48387,-1.23930712 -8.55692,-4.15102042 -12.75,-4.75000002 -7.03748,-1.0054299 -14.08384,-1.3667307 -21,-2.75 -5.53739,-1.1075149 -10.20148,-3.7361856 -15.5,-5.2499996 -3.26283,-0.93241 -6.74092,-1.206807 -10,-1.75 -13.96649,-2.327811 -27.36629,-4.766693 -41.25,-6.75 -2.83469,-0.404977 -5.25493,-1.700911 -8,-2.25 -14.85581,-2.9712 -25.94778,-8.723928 -39,-15.25 -2.15055,-1.075352 -5.40858,-0.82933 -7.75,-2 -2.79647,-1.398199 -5.68209,-3.608013 -9.25,-4.5 -4.00589,-1.001503 -11.03224,0.905959 -12.25,0.5 -1.56246,-0.522705 -3.37783,-0.229783 -5,-0.5 -11.32573,-1.887693 -14.47373,-6.388948 -34.86133,-10.25 V 388.74805 H 1442.0156 V -55.916016 c -0.1009,-0.01928 -0.1733,-0.03928 -0.2754,-0.05859 -1.9926,-0.504118 -28.6315,9.3604 -30.4648,10.09375 -2.1675,0.901889 -29.444,17.85427 -31.3516,18.849609 0,0 -15.3567,7.155112 -34.1484,24.7753906 -4.4159,1.76632065 -7.2801,5.530761 -11.75,7.25 -21.4921,8.2661594 -45.0402,22.5752744 -65.9141,32.0273434 -8.3311,2.082785 -19.0505,7.415166 -28.5,10.25 -14.5485,4.364561 -27.9543,-11.484582 -42.5429,-7.316406 -5.8522,1.672063 -11.6899,7.501165 -17.086,10.199219 -2.162,1.08102 -4.1878,3.093918 -6.5,4.25 -6.2425,3.121285 -20.8755,4.194164 -27.207,7.318359 -5.454,2.726967 -26.5349,4.46721 -34.793,5.384766 -3.233,0.359055 -9.4448,1.111036 -12.5,0.5 -2.299,-0.459931 -6.0626,-0.987484 -8.5,-0.5 -1.9357,0.387137 -2.8546,1.427272 -4.5,2.25 -5.2823,2.641172 -47.3627,16.092063 -65.2383,19.568359 -2.2444,0.436422 -4.1083,0.715993 -5.4687,0.796875 -14.4901,0.342425 -26.38972,5.573347 -54.52735,7.228516 -6.01043,0.353386 -13.96576,-0.774084 -35.83985,-7.460938 -0.74203,-0.371149 -13.08057,2.801418 -14.83008,3.56836 -7.1297,3.125102 -16.20864,0.534743 -18.01953,-2.181641 -1.73416,-2.60126 -9.83207,-3.867865 -12.7832,-4.851562 -4.55641,-1.518804 -9.3917,-3.578363 -14,-4.5 -4.21259,-0.842533 -8.76682,-0.895276 -13,-1.5 -3.41968,-0.488504 -6.24521,-2.123793 -9.75,-3 -5.35094,-1.337726 -14.06443,2.005864 -19.5,2.5 -5.79568,0.526866 -12.29091,0.223395 -18,-1 -9.73361,-2.085808 -18.94829,-6.757585 -27.5,-11.75 -2.40869,-1.019037 -4.67017,-2.570041 -7.25,-3 -10.62414,-1.770671 -25.1213,-0.560649 -35,-5.5 -4.27831,-2.139137 -9.0292,-3.711679 -13.5,-5.5 -7.81315,-3.125254 -15.3316,-7.091811 -23,-10.5 -11.88476,-5.282117 -23.44781,-12.362014 -36,-15.5 -10.10169,-2.525481 -20.43946,-3.98488 -30.5,-6.5 -5.42064,-1.35515 -10.93889,-3.687813 -16.25,-4.75 -6.0291,-1.205821 -12.63629,-2.295459 -18.5,-4.25 -4.24751,-1.4158492 -8.73563,-3.1471197 -13,-4.0000004 -6.31491,-1.2629707 -9.07568,-6.2611685 -19.5,-7.74999998 -5.48387,-1.23931082 -8.55692,-4.15101672 -12.75,-4.75000002 -7.03748,-1.0053997 -14.08384,-1.3667382 -21,-2.75 -5.53739,-1.1075187 -10.20148,-3.7361896 -15.5,-5.2499996 -3.26283,-0.93241 -6.74091,-1.20681 -10,-1.75 -13.96649,-2.327819 -27.36628,-4.766697 -41.25,-6.75 -2.83468,-0.404977 -5.25493,-1.700911 -8,-2.25 -14.85581,-2.9712 -25.94778,-8.723928 -39,-15.25 -2.15055,-1.075359 -5.40858,-0.829303 -7.75,-2 -2.79647,-1.398203 -5.68212,-3.608013 -9.25,-4.5 -4.00592,-1.001503 -11.03223,0.905951 -12.25,0.5 -1.56245,-0.522728 -3.37782,-0.22976 -5,-0.5 -11.32576,-1.887693 -14.47373,-6.388948 -34.86133,-10.25 -0.10091,-0.01928 -0.17334,-0.03932 -0.27539,-0.05859 z"
         transform="matrix(0.26458333,0,0,0.26458333,-21.930912,92.889073)"
         sodipodi:nodetypes="sccccccssscccsccccccsssssscccssscssssccscsscsssccccccccccscsssscssssscsccssssssscssssssssscsscsscssscccss" />
    </g>
  </g>
</svg>
