<svg width="20" height="20" viewBox="0 0 20 20" fill="none" xmlns="http://www.w3.org/2000/svg">
<path d="M9.97555 4.45094C8.90148 4.4407 7.84706 4.7362 6.93779 5.30228C6.02851 5.86835 5.30267 6.68116 4.84667 7.64395C4.53409 8.30373 4.35585 9.018 4.32211 9.74598C4.28838 10.474 4.39982 11.2014 4.65007 11.8867C4.90031 12.5721 5.28447 13.2019 5.78059 13.7403C6.27672 14.2786 6.8751 14.715 7.54156 15.0244C8.88706 15.649 10.4281 15.7191 11.8257 15.2192C13.2234 14.7193 14.3634 13.6904 14.995 12.3587C15.6266 11.0268 15.6981 9.50118 15.1938 8.11717C14.6894 6.73316 13.6506 5.6041 12.3055 4.97824L12.2982 4.97464C11.5708 4.63735 10.7787 4.45872 9.97555 4.45094ZM9.95913 6.22443C10.5056 6.23016 11.0445 6.35212 11.5392 6.58204L11.5428 6.58385C12.458 7.00955 13.1649 7.77768 13.5081 8.7193C13.8513 9.66093 13.8026 10.6989 13.3729 11.6051C12.9429 12.5107 12.1672 13.2103 11.2164 13.5501C10.2656 13.8898 9.2175 13.8419 8.30237 13.4169C7.38702 12.9918 6.67965 12.2243 6.33579 11.283C5.99193 10.3418 6.03973 9.30385 6.46867 8.39747C6.77886 7.74214 7.27278 7.18889 7.89161 6.80361C8.51044 6.41834 9.22814 6.21731 9.95913 6.22443Z" fill="#161441"/>
<path d="M1.84952 9.07391H0.92609C0.414624 9.07391 0 9.48854 0 10C0 10.5115 0.414624 10.9261 0.92609 10.9261H1.84952C2.36098 10.9261 2.77561 10.5115 2.77561 10C2.77561 9.48854 2.36098 9.07391 1.84952 9.07391Z" fill="#161441"/>
<path d="M19.0739 9.07391H18.1505C17.639 9.07391 17.2244 9.48854 17.2244 10C17.2244 10.5115 17.639 10.9261 18.1505 10.9261H19.0739C19.5854 10.9261 20 10.5115 20 10C20 9.48854 19.5854 9.07391 19.0739 9.07391Z" fill="#161441"/>
<path d="M10.9261 1.84952V0.926092C10.9261 0.414626 10.5115 0 10 0C9.48853 0 9.07391 0.414626 9.07391 0.926092V1.84952C9.07391 2.36099 9.48853 2.77561 10 2.77561C10.5115 2.77561 10.9261 2.36099 10.9261 1.84952Z" fill="#161441"/>
<path d="M10.9261 19.0739V18.1505C10.9261 17.639 10.5115 17.2244 10 17.2244C9.48853 17.2244 9.07391 17.639 9.07391 18.1505V19.0739C9.07391 19.5853 9.48853 20 10 20C10.5115 20 10.9261 19.5853 10.9261 19.0739Z" fill="#161441"/>
<path d="M4.89158 3.58192L4.23862 2.92895C3.87695 2.56729 3.29059 2.56729 2.92892 2.92895C2.56726 3.29062 2.56726 3.87698 2.92892 4.23864L3.58189 4.89161C3.94355 5.25327 4.52992 5.25327 4.89158 4.89161C5.25324 4.52995 5.25324 3.94358 4.89158 3.58192Z" fill="#161441"/>
<path d="M17.0711 15.7614L16.4181 15.1084C16.0564 14.7467 15.4701 14.7467 15.1084 15.1084C14.7468 15.4701 14.7468 16.0564 15.1084 16.4181L15.7614 17.0711C16.123 17.4327 16.7094 17.4327 17.0711 17.0711C17.4327 16.7094 17.4327 16.123 17.0711 15.7614Z" fill="#161441"/>
<path d="M16.4181 4.89161L17.0711 4.23865C17.4327 3.87699 17.4327 3.29062 17.0711 2.92896C16.7094 2.5673 16.123 2.5673 15.7614 2.92896L15.1084 3.58192C14.7467 3.94358 14.7467 4.52995 15.1084 4.89161C15.4701 5.25327 16.0564 5.25327 16.4181 4.89161Z" fill="#161441"/>
<path d="M4.23862 17.0711L4.89159 16.4181C5.25325 16.0564 5.25325 15.4701 4.89159 15.1084C4.52993 14.7467 3.94356 14.7467 3.5819 15.1084L2.92894 15.7614C2.56727 16.123 2.56727 16.7094 2.92894 17.0711C3.2906 17.4327 3.87696 17.4327 4.23862 17.0711Z" fill="#161441"/>
</svg>
