<svg width="19" height="14" viewBox="0 0 19 14" fill="none" xmlns="http://www.w3.org/2000/svg">
<path d="M4.75 13.8182C3.43727 13.8182 2.31742 13.3662 1.39045 12.4623C0.463485 11.5526 0 10.4442 0 9.13727C0 8.01455 0.336818 7.01273 1.01045 6.13182C1.68985 5.25091 2.57652 4.68955 3.67045 4.44773C4.03318 3.12348 4.75288 2.05258 5.82955 1.235C6.91197 0.411667 8.13545 0 9.5 0C11.187 0 12.6148 0.587273 13.7836 1.76182C14.9582 2.93061 15.5455 4.35848 15.5455 6.04545C16.5415 6.16061 17.3648 6.59242 18.0155 7.34091C18.6718 8.07788 19 8.94152 19 9.93182C19 11.0142 18.6229 11.9326 17.8686 12.6868C17.1144 13.4411 16.1961 13.8182 15.1136 13.8182M4.75 12.0909H15.1136C15.7182 12.0909 16.2277 11.8808 16.6423 11.4605C17.0626 11.0459 17.2727 10.5364 17.2727 9.93182C17.2727 9.32727 17.0626 8.81773 16.6423 8.40318C16.2277 7.98288 15.7182 7.77273 15.1136 7.77273H13.8182V6.04545C13.8182 4.85364 13.3979 3.83455 12.5573 2.98818C11.7167 2.14758 10.6976 1.72727 9.5 1.72727C8.30818 1.72727 7.28909 2.14758 6.44273 2.98818C5.60212 3.83455 5.18182 4.85364 5.18182 6.04545H4.75C3.91515 6.04545 3.20409 6.34197 2.61682 6.935C2.02379 7.52227 1.72727 8.23333 1.72727 9.06818C1.72727 9.90303 2.02379 10.6227 2.61682 11.2273C3.20409 11.803 3.91515 12.0909 4.75 12.0909Z" fill="#161441"/>
</svg>
