<svg width="18" height="20" viewBox="0 0 18 20" fill="none" xmlns="http://www.w3.org/2000/svg">
<path d="M17.497 11.5583L15.2434 12.158L13.309 11.065V8.27942L15.2434 7.18646L17.497 7.78614L18 5.9194L16.288 5.4648L16.7329 3.75282L14.8662 3.24987L14.2665 5.50349L12.3321 6.59645L9.96239 5.20365V3.01773L11.6163 1.36378L10.2429 0L8.99516 1.24772L7.74745 0L6.37399 1.36378L8.02794 3.01773V5.20365L5.60989 6.59645L3.67544 5.50349L3.11445 3.24987L1.25739 3.75282L1.71198 5.4648L0 5.9194L0.502955 7.78614L2.75658 7.18646L4.69103 8.27942V11.0747L2.75658 12.1677L0.502955 11.568L0 13.4347L1.71198 13.8893L1.25739 15.5916L3.12413 16.0946L3.7238 13.8409L5.65825 12.748L8.02794 14.1408V16.3267L6.37399 17.9807L7.74745 19.3444L8.99516 18.0967L10.2429 19.3444L11.6067 17.9807L9.96239 16.3267V14.1408L12.3804 12.7383L14.3149 13.8313L14.9146 16.0849L16.7329 15.5916L16.2783 13.8796L17.9903 13.425L17.497 11.5583ZM6.57711 8.27942L8.99516 6.87695L11.4132 8.27942V11.065L8.99516 12.4675L6.57711 11.065V8.27942Z" fill="#161441"/>
</svg>
