<svg width="24" height="18" viewBox="0 0 24 18" fill="none" xmlns="http://www.w3.org/2000/svg">
<path d="M15.2499 3.88597C14.6018 3.88199 13.9595 4.00549 13.36 4.2493C12.7606 4.49311 12.2161 4.85237 11.758 5.30623C12.2261 5.53597 12.6619 5.8379 13.0658 6.21328C13.6718 5.70591 14.4409 5.42958 15.2345 5.4341C15.7116 5.43905 16.182 5.54546 16.6139 5.74612L16.6173 5.74786C17.4162 6.11948 18.0334 6.79005 18.333 7.6121C18.6326 8.43415 18.5901 9.34035 18.2148 10.1314C17.9607 10.6643 17.5668 11.1201 17.0742 11.451C17.0919 11.4706 17.1113 11.4873 17.1288 11.5073C17.4744 11.8954 17.7177 12.3232 17.8653 12.7878C18.6302 12.2969 19.2414 11.6042 19.63 10.7878C20.1811 9.62553 20.2435 8.2942 19.8036 7.08637C19.3637 5.87853 18.4574 4.89301 17.2839 4.34636L17.2771 4.34295C16.6422 4.04863 15.9509 3.89276 15.2499 3.88597Z" fill="#161441"/>
<path d="M23.1916 7.92111H22.3855C21.939 7.92111 21.577 8.28306 21.577 8.72954C21.577 9.17603 21.939 9.53798 22.3855 9.53798H23.1916C23.6381 9.53798 24 9.17603 24 8.72954C24 8.28306 23.6381 7.92111 23.1916 7.92111Z" fill="#161441"/>
<path d="M16.0789 1.61454V0.808434C16.0789 0.361948 15.717 0 15.2705 0C14.824 0 14.462 0.361948 14.462 0.808434V1.61454C14.462 2.06103 14.824 2.42298 15.2705 2.42298C15.717 2.42298 16.0789 2.06103 16.0789 1.61454Z" fill="#161441"/>
<path d="M10.8111 3.12685L10.241 2.55684C9.92534 2.24113 9.41346 2.24113 9.09775 2.55684C8.78204 2.87255 8.78204 3.38443 9.09775 3.70014L9.66775 4.27015C9.98347 4.58586 10.4953 4.58586 10.8111 4.27015C11.1268 3.95443 11.1268 3.44256 10.8111 3.12685Z" fill="#161441"/>
<path d="M21.4432 13.7589L20.8732 13.1889C20.5575 12.8732 20.0456 12.8732 19.7299 13.1889C19.4142 13.5046 19.4142 14.0165 19.7299 14.3322L20.2999 14.9022C20.6156 15.218 21.1275 15.218 21.4432 14.9022C21.7589 14.5865 21.7589 14.0747 21.4432 13.7589Z" fill="#161441"/>
<path d="M20.8732 4.27015L21.4432 3.70014C21.7589 3.38443 21.7589 2.87256 21.4432 2.55684C21.1275 2.24113 20.6156 2.24113 20.2999 2.55684L19.7299 3.12685C19.4142 3.44256 19.4142 3.95443 19.7299 4.27015C20.0456 4.58586 20.5575 4.58586 20.8732 4.27015Z" fill="#161441"/>
<path d="M4.36477 17.9232C3.1585 17.9232 2.12947 17.5079 1.27769 16.6773C0.425896 15.8413 0 14.8228 0 13.6219C0 12.5902 0.309502 11.6697 0.928509 10.8602C1.5528 10.0507 2.36756 9.5349 3.37278 9.31269C3.70608 8.09585 4.36741 7.11179 5.35676 6.36052C6.3514 5.60396 7.47566 5.22568 8.72954 5.22568C10.2797 5.22568 11.5918 5.76533 12.6658 6.84462C13.7451 7.91861 14.2847 9.23069 14.2847 10.7808C15.2 10.8867 15.9565 11.2834 16.5543 11.9712C17.1575 12.6484 17.4591 13.442 17.4591 14.352C17.4591 15.3466 17.1125 16.1905 16.4195 16.8835C15.7264 17.5767 14.8826 17.9232 13.8879 17.9232M4.36477 16.336H13.8879C14.4435 16.336 14.9116 16.1429 15.2926 15.7566C15.6788 15.3758 15.8719 14.9075 15.8719 14.352C15.8719 13.7965 15.6788 13.3283 15.2926 12.9474C14.9116 12.5611 14.4435 12.368 13.8879 12.368H12.6975V10.7808C12.6975 9.68568 12.3113 8.74924 11.5389 7.97151C10.7664 7.19909 9.82998 6.81287 8.72954 6.81287C7.63437 6.81287 6.69794 7.19909 5.92022 7.97151C5.14778 8.74924 4.76157 9.68568 4.76157 10.7808H4.36477C3.59763 10.7808 2.94424 11.0533 2.40459 11.5982C1.85965 12.1379 1.58719 12.7913 1.58719 13.5584C1.58719 14.3255 1.85965 14.9869 2.40459 15.5424C2.94424 16.0714 3.59763 16.336 4.36477 16.336Z" fill="#161441"/>
</svg>
