<svg width="24" height="23" viewBox="0 0 24 23" fill="none" xmlns="http://www.w3.org/2000/svg">
<path d="M6.74863 14.0813C7.19571 14.1994 7.46566 14.6634 7.34756 15.1105L6.25091 19.1849C6.13281 19.6405 5.66884 19.902 5.22175 19.7839C5.11448 19.757 5.01379 19.7086 4.9258 19.6416C4.83781 19.5746 4.76437 19.4904 4.70993 19.3942C4.65548 19.2979 4.62118 19.1916 4.60911 19.0817C4.59703 18.9717 4.60744 18.8605 4.63968 18.7547L5.71946 14.6802C5.83756 14.2247 6.30153 13.9632 6.74863 14.0813ZM10.1229 14.0813C10.57 14.1994 10.8399 14.6634 10.7219 15.1105L8.97567 21.6313C8.85756 22.0953 8.39359 22.3484 7.93806 22.2302C7.49096 22.0953 7.22103 21.6481 7.33913 21.1926L9.09377 14.6802C9.21186 14.2247 9.67585 13.9632 10.1229 14.0813ZM13.4973 14.0813C13.9443 14.1994 14.2143 14.6634 14.0962 15.1105L12.9995 19.1849C12.8814 19.6405 12.4174 19.902 11.9704 19.7839C11.8631 19.757 11.7624 19.7086 11.6744 19.6416C11.5864 19.5746 11.513 19.4904 11.4585 19.3942C11.4041 19.2979 11.3698 19.1916 11.3577 19.0817C11.3457 18.9717 11.3561 18.8605 11.3883 18.7547L12.4681 14.6802C12.5861 14.2247 13.0501 13.9632 13.4973 14.0813ZM13.4973 12.3941V11.5506C13.4973 10.4319 13.0529 9.35909 12.2618 8.56808C11.4708 7.77708 10.398 7.33269 9.27934 7.33269C7.17041 7.33269 5.44108 8.868 5.11208 10.8673C4.8337 10.766 4.53002 10.707 4.21789 10.707C3.5467 10.707 2.903 10.9736 2.42839 11.4482C1.95379 11.9228 1.68716 12.5665 1.68716 13.2377C1.68716 14.1741 2.19331 14.9923 2.95253 15.431V15.4226C3.37431 15.6588 3.49242 16.1902 3.26465 16.5783C3.02845 16.9748 2.53074 17.1182 2.10895 16.882V16.8904C1.46661 16.5216 0.933224 15.9894 0.562855 15.3479C0.192488 14.7064 -0.00168891 13.9784 1.10669e-05 13.2377C1.10669e-05 12.1191 0.444393 11.0462 1.2354 10.2552C2.0264 9.46423 3.09925 9.01984 4.21789 9.01984C5.06146 7.03744 7.00169 5.64554 9.27934 5.64554C12.1728 5.64554 14.5432 7.88945 14.7626 10.7323L15.1843 10.707C16.0793 10.707 16.9376 11.0625 17.5703 11.6953C18.2032 12.3281 18.5587 13.1864 18.5587 14.0813C18.5587 15.3466 17.8838 16.418 16.8715 17.0001C16.4498 17.2278 15.952 17.0929 15.7159 16.688C15.4881 16.283 15.6062 15.7685 16.0279 15.5322V15.5407C16.5341 15.2538 16.8715 14.7055 16.8715 14.0813C16.8715 13.6338 16.6938 13.2047 16.3774 12.8883C16.061 12.5719 15.6318 12.3941 15.1843 12.3941H13.4973Z" fill="#161441"/>
<path d="M14.6983 4.12943C13.4362 4.1179 12.213 4.56107 11.2566 5.37634C11.8824 5.54826 12.4609 5.82859 12.9765 6.19553C13.5002 5.91561 14.0868 5.77099 14.6819 5.77506C15.1892 5.78089 15.6892 5.89462 16.1481 6.10854H16.1518C17.0011 6.50356 17.6571 7.21637 17.9755 8.09019C18.294 8.96401 18.2488 9.92729 17.85 10.7681C17.8189 10.824 17.7862 10.879 17.7521 10.9331C17.8711 11.0239 17.9876 11.1196 18.0946 11.2267C18.412 11.544 18.6588 11.918 18.8268 12.325C19.031 12.057 19.2083 11.7699 19.356 11.4677C19.9423 10.2318 20.0087 8.81602 19.5407 7.53165C19.0727 6.24728 18.1086 5.19951 16.8604 4.61877L16.8532 4.61695C16.1784 4.30346 15.4435 4.1372 14.6983 4.12943Z" fill="#161441"/>
<path d="M23.1406 8.42H22.2838C21.8092 8.42 21.4244 8.80474 21.4244 9.27935C21.4244 9.75396 21.8092 10.1387 22.2838 10.1387H23.1406C23.6153 10.1387 24 9.75396 24 9.27935C24 8.80474 23.6153 8.42 23.1406 8.42Z" fill="#161441"/>
<path d="M15.58 1.71623V0.859352C15.58 0.384745 15.1953 0 14.7207 0C14.2461 0 13.8613 0.384745 13.8613 0.859352V1.71623C13.8613 2.19084 14.2461 2.57558 14.7207 2.57558C15.1953 2.57558 15.58 2.19084 15.58 1.71623Z" fill="#161441"/>
<path d="M9.98038 3.32378L9.37448 2.71788C9.03888 2.38228 8.49477 2.38228 8.15917 2.71788C7.82357 3.05348 7.82357 3.59759 8.15917 3.93318L8.76508 4.53909C9.10068 4.87469 9.64479 4.87469 9.98038 4.53909C10.316 4.20349 10.316 3.65938 9.98038 3.32378Z" fill="#161441"/>
<path d="M21.2822 14.6255L20.6762 14.0196C20.3406 13.684 19.7965 13.684 19.4609 14.0196C19.1253 14.3552 19.1253 14.8993 19.4609 15.2349L20.0668 15.8408C20.4024 16.1764 20.9466 16.1764 21.2822 15.8408C21.6177 15.5052 21.6177 14.9611 21.2822 14.6255Z" fill="#161441"/>
<path d="M20.6762 4.53909L21.2821 3.93319C21.6177 3.59759 21.6177 3.05348 21.2821 2.71788C20.9465 2.38228 20.4024 2.38228 20.0668 2.71788L19.4609 3.32378C19.1253 3.65938 19.1253 4.20349 19.4609 4.53909C19.7965 4.87469 20.3406 4.87469 20.6762 4.53909Z" fill="#161441"/>
</svg>
