<svg width="20" height="18" viewBox="0 0 20 18" fill="none" xmlns="http://www.w3.org/2000/svg">
<path d="M7.27274 9.0909C7.75455 9.21818 8.04546 9.71818 7.91819 10.2L6.73637 14.5909C6.6091 15.0818 6.1091 15.3636 5.62728 15.2364C5.51168 15.2074 5.40317 15.1552 5.30835 15.083C5.21353 15.0108 5.13438 14.9201 5.07571 14.8164C5.01704 14.7126 4.98007 14.5981 4.96706 14.4796C4.95405 14.3611 4.96526 14.2413 5.00001 14.1273L6.16365 9.73636C6.29092 9.24545 6.79092 8.96363 7.27274 9.0909ZM10.9091 9.0909C11.3909 9.21818 11.6818 9.71818 11.5546 10.2L9.67274 17.2273C9.54546 17.7273 9.04546 18 8.55455 17.8727C8.07274 17.7273 7.78183 17.2454 7.9091 16.7545L9.80001 9.73636C9.92728 9.24545 10.4273 8.96363 10.9091 9.0909ZM14.5455 9.0909C15.0273 9.21818 15.3182 9.71818 15.1909 10.2L14.0091 14.5909C13.8818 15.0818 13.3818 15.3636 12.9 15.2364C12.7844 15.2074 12.6759 15.1552 12.5811 15.083C12.4862 15.0108 12.4071 14.9201 12.3484 14.8164C12.2898 14.7126 12.2528 14.5981 12.2398 14.4796C12.2268 14.3611 12.238 14.2413 12.2727 14.1273L13.4364 9.73636C13.5636 9.24545 14.0636 8.96363 14.5455 9.0909ZM14.5455 7.27272V6.36363C14.5455 5.1581 14.0666 4.00195 13.2141 3.14951C12.3617 2.29707 11.2055 1.81818 10 1.81818C7.72728 1.81818 5.86365 3.47272 5.5091 5.62727C5.2091 5.51818 4.88183 5.45454 4.54546 5.45454C3.82215 5.45454 3.12845 5.74188 2.61699 6.25334C2.10553 6.7648 1.81819 7.4585 1.81819 8.18181C1.81819 9.1909 2.36365 10.0727 3.18183 10.5454V10.5364C3.63637 10.7909 3.76365 11.3636 3.51819 11.7818C3.26365 12.2091 2.72728 12.3636 2.27274 12.1091V12.1182C1.58051 11.7207 1.0057 11.1472 0.606568 10.4559C0.207437 9.76459 -0.00181985 8.98006 1.19236e-05 8.18181C1.19236e-05 6.97628 0.478906 5.82013 1.33134 4.96769C2.18378 4.11526 3.33994 3.63636 4.54546 3.63636C5.45455 1.5 7.54546 0 10 0C13.1182 0 15.6727 2.41818 15.9091 5.48181L16.3636 5.45454C17.3281 5.45454 18.253 5.83766 18.9349 6.51961C19.6169 7.20156 20 8.12648 20 9.0909C20 10.4545 19.2727 11.6091 18.1818 12.2364C17.7273 12.4818 17.1909 12.3364 16.9364 11.9C16.6909 11.4636 16.8182 10.9091 17.2727 10.6545V10.6636C17.8182 10.3545 18.1818 9.76363 18.1818 9.0909C18.1818 8.60869 17.9903 8.14623 17.6493 7.80526C17.3083 7.46428 16.8459 7.27272 16.3636 7.27272H14.5455Z" fill="#161441"/>
</svg>
