<svg width="20" height="20" viewBox="0 0 20 20" fill="none" xmlns="http://www.w3.org/2000/svg">
<path d="M2.72758 13.9652C2.60029 13.4743 2.89124 12.956 3.39129 12.8287L5.45516 12.2741L3.93681 10.783C3.57313 10.4194 3.57313 9.82839 3.93681 9.45562C4.30049 9.09194 4.90965 9.09194 5.26423 9.45562L6.7735 10.9558L7.30992 8.9101C7.43721 8.40095 7.95545 8.11001 8.44641 8.24639C8.95556 8.37368 9.2465 8.89192 9.09194 9.39197L8.56461 11.4377L10.6103 10.9103C10.7279 10.8732 10.8518 10.8606 10.9744 10.8734C11.0971 10.8862 11.2158 10.924 11.3232 10.9845C11.4306 11.045 11.5244 11.127 11.5988 11.2252C11.6733 11.3235 11.7267 11.4361 11.7559 11.5559C11.8923 12.0468 11.6013 12.5651 11.0922 12.6923L9.04648 13.2288L10.5467 14.738C10.9103 15.0926 10.9103 15.7018 10.5467 16.0655C10.183 16.4291 9.5829 16.4291 9.22832 16.0655L7.72815 14.5471L7.17354 16.611C7.04625 17.1201 6.52801 17.402 6.03705 17.2747C5.5279 17.1474 5.24605 16.6292 5.37334 16.1291L5.90976 14.0925L3.87317 14.6289C3.37311 14.7562 2.85487 14.4744 2.72758 13.9652ZM0 8.18275C0 6.97708 0.478949 5.82079 1.33148 4.96826C2.18402 4.11572 3.3403 3.63678 4.54597 3.63678C5.45516 1.50017 7.54631 0 10.0011 0C13.1197 0 15.6745 2.41846 15.9109 5.48244L16.3655 5.45516C17.33 5.45516 18.2551 5.83832 18.9371 6.52035C19.6191 7.20238 20.0023 8.12741 20.0023 9.09194C20.0023 10.0565 19.6191 10.9815 18.9371 11.6635C18.2551 12.3456 17.33 12.7287 16.3655 12.7287C16.1244 12.7287 15.8931 12.6329 15.7226 12.4624C15.5521 12.2919 15.4563 12.0607 15.4563 11.8195C15.4563 11.5784 15.5521 11.3471 15.7226 11.1766C15.8931 11.0061 16.1244 10.9103 16.3655 10.9103C16.8478 10.9103 17.3103 10.7187 17.6513 10.3777C17.9923 10.0367 18.1839 9.57421 18.1839 9.09194C18.1839 8.60967 17.9923 8.14716 17.6513 7.80615C17.3103 7.46513 16.8478 7.27355 16.3655 7.27355H14.5471V6.36436C14.5471 5.15869 14.0682 4.00241 13.2156 3.14987C12.3631 2.29734 11.2068 1.81839 10.0011 1.81839C7.72815 1.81839 5.8643 3.47312 5.50972 5.62791C5.20968 5.51881 4.88237 5.45516 4.54597 5.45516C3.82257 5.45516 3.1288 5.74253 2.61728 6.25405C2.10576 6.76558 1.81839 7.45935 1.81839 8.18275C1.81839 8.95556 2.13661 9.64655 2.64575 10.1466C2.97306 10.5012 2.96397 11.0558 2.61848 11.4013C2.53437 11.4856 2.43446 11.5524 2.32447 11.5981C2.21448 11.6437 2.09657 11.6672 1.9775 11.6672C1.85842 11.6672 1.74051 11.6437 1.63053 11.5981C1.52054 11.5524 1.42063 11.4856 1.33652 11.4013C0.912991 10.9791 0.57693 10.4775 0.347588 9.92518C0.118245 9.37288 0.000126694 8.78077 0 8.18275ZM11.8468 17.6656C11.9377 18.0202 12.2741 18.2202 12.6469 18.1293L14.0925 17.7293L13.6925 19.1749C13.6015 19.5477 13.8016 19.8841 14.1562 19.975C14.5016 20.075 14.8653 19.8659 14.9562 19.5113L15.329 18.0839L16.3928 19.1385C16.6383 19.3931 17.0656 19.3931 17.3201 19.1385C17.5747 18.884 17.5747 18.4566 17.3201 18.2112L16.2655 17.1474L17.6929 16.7746C18.0475 16.6837 18.2566 16.32 18.1566 15.9745C18.0657 15.62 17.7293 15.4199 17.3565 15.5108L15.9109 15.9109L16.3109 14.4653C16.4019 14.0925 16.2018 13.7561 15.8473 13.6652C15.7643 13.6419 15.6774 13.6355 15.5919 13.6464C15.5064 13.6572 15.424 13.685 15.3494 13.7283C15.2748 13.7715 15.2097 13.8292 15.1578 13.898C15.1058 13.9668 15.0682 14.0453 15.0472 14.1289L14.6744 15.5563L13.6106 14.5016C13.4873 14.3793 13.3207 14.3106 13.1469 14.3106C12.9732 14.3106 12.8066 14.3793 12.6833 14.5016C12.4287 14.7653 12.4287 15.1835 12.6833 15.429L13.7379 16.4928L12.3105 16.8655C11.9559 16.9565 11.7468 17.3201 11.8468 17.6656Z" fill="#161441"/>
</svg>
