<svg width="20" height="19" viewBox="0 0 20 19" fill="none" xmlns="http://www.w3.org/2000/svg">
<path d="M4.54545 12.7273C3.94854 12.7273 3.35746 12.6097 2.80598 12.3813C2.2545 12.1528 1.75342 11.818 1.33133 11.3959C0.478895 10.5435 0 9.38735 0 8.18182C0 6.97629 0.478895 5.82013 1.33133 4.9677C2.18377 4.11526 3.33993 3.63636 4.54545 3.63636C5.45455 1.5 7.54545 0 10 0C13.1182 0 15.6727 2.41818 15.9091 5.48182L16.3636 5.45455C17.3281 5.45455 18.253 5.83766 18.9349 6.51961C19.6169 7.20156 20 8.12649 20 9.09091C20 10.0553 19.6169 10.9803 18.9349 11.6622C18.253 12.3442 17.3281 12.7273 16.3636 12.7273H15.4545C15.2134 12.7273 14.9822 12.6315 14.8117 12.461C14.6412 12.2905 14.5455 12.0593 14.5455 11.8182C14.5455 11.5771 14.6412 11.3458 14.8117 11.1754C14.9822 11.0049 15.2134 10.9091 15.4545 10.9091H16.3636C16.8458 10.9091 17.3083 10.7175 17.6493 10.3766C17.9903 10.0356 18.1818 9.57312 18.1818 9.09091C18.1818 8.6087 17.9903 8.14624 17.6493 7.80526C17.3083 7.46429 16.8458 7.27273 16.3636 7.27273H14.5455V6.36364C14.5455 5.15811 14.0666 4.00195 13.2141 3.14951C12.3617 2.29708 11.2055 1.81818 10 1.81818C7.72727 1.81818 5.86364 3.47273 5.50909 5.62727C5.20909 5.51818 4.88182 5.45455 4.54545 5.45455C3.82214 5.45455 3.12844 5.74188 2.61698 6.25334C2.10552 6.76481 1.81818 7.4585 1.81818 8.18182C1.81818 8.90514 2.10552 9.59883 2.61698 10.1103C3.12844 10.6218 3.82214 10.9091 4.54545 10.9091H5.45455C5.69565 10.9091 5.92688 11.0049 6.09737 11.1754C6.26786 11.3458 6.36364 11.5771 6.36364 11.8182C6.36364 12.0593 6.26786 12.2905 6.09737 12.461C5.92688 12.6315 5.69565 12.7273 5.45455 12.7273H4.54545ZM10 8.18182H12.7273L10.9091 11.8182H12.7273L9.31818 18.1818L10 13.6364H7.72727L10 8.18182Z" fill="#161441"/>
</svg>
