<svg width="20" height="19" viewBox="0 0 20 19" fill="none" xmlns="http://www.w3.org/2000/svg">
<path d="M3.18183 10.5364C3.63637 10.7909 3.76365 11.3636 3.51819 11.7818C3.26365 12.2182 2.72728 12.3636 2.27274 12.1182C1.58051 11.7207 1.0057 11.1472 0.606568 10.4559C0.207437 9.76459 -0.00181985 8.98006 1.19236e-05 8.18181C1.19236e-05 6.97628 0.478906 5.82013 1.33134 4.96769C2.18378 4.11526 3.33994 3.63636 4.54546 3.63636C5.45455 1.5 7.54546 0 10 0C13.1182 0 15.6727 2.41818 15.9091 5.48181L16.3636 5.45454C17.3281 5.45454 18.253 5.83766 18.9349 6.51961C19.6169 7.20156 20 8.12648 20 9.0909C20 10.0553 19.6169 10.9802 18.9349 11.6622C18.253 12.3441 17.3281 12.7273 16.3636 12.7273C16.1225 12.7273 15.8913 12.6315 15.7208 12.461C15.5503 12.2905 15.4545 12.0593 15.4545 11.8182C15.4545 11.5771 15.5503 11.3458 15.7208 11.1754C15.8913 11.0049 16.1225 10.9091 16.3636 10.9091C16.8458 10.9091 17.3083 10.7175 17.6493 10.3766C17.9903 10.0356 18.1818 9.57311 18.1818 9.0909C18.1818 8.60869 17.9903 8.14623 17.6493 7.80526C17.3083 7.46428 16.8458 7.27272 16.3636 7.27272H14.5455V6.36363C14.5455 5.1581 14.0666 4.00195 13.2141 3.14951C12.3617 2.29708 11.2055 1.81818 10 1.81818C7.72728 1.81818 5.86364 3.47272 5.5091 5.62727C5.2091 5.51818 4.88183 5.45454 4.54546 5.45454C3.82215 5.45454 3.12845 5.74188 2.61699 6.25334C2.10553 6.7648 1.81819 7.4585 1.81819 8.18181C1.81819 9.1909 2.36365 10.0727 3.18183 10.5454V10.5364ZM7.72728 8.18181H10.4546L8.63637 11.8182H10.4546L7.04546 18.1818L7.72728 13.6364H5.45455L7.72728 8.18181ZM15 15.1545C15 16.3273 14.0909 17.2727 12.9545 17.2727C11.8182 17.2727 10.9091 16.3273 10.9091 15.1545C10.9091 13.7454 12.9545 11.3636 12.9545 11.3636C12.9545 11.3636 15 13.7454 15 15.1545Z" fill="#161441"/>
</svg>
