<svg width="20" height="14" viewBox="0 0 20 14" fill="none" xmlns="http://www.w3.org/2000/svg">
<path d="M16.806 7.91894C17.4258 7.79128 18.0064 7.5184 18.5002 7.12273C18.994 6.72706 19.3869 6.21987 19.6466 5.64285C19.9063 5.06582 20.0254 4.43541 19.9941 3.80341C19.9628 3.17141 19.782 2.55584 19.4666 2.00729C19.1512 1.45873 18.7101 0.992837 18.1797 0.647872C17.6492 0.302906 17.0444 0.088715 16.4151 0.0228931C15.7857 -0.0429289 15.1498 0.0414965 14.5594 0.269234C13.969 0.496972 13.4411 0.861524 13.019 1.33294C12.845 1.53096 12.7562 1.78968 12.772 2.05282C12.7877 2.31596 12.9068 2.56223 13.1032 2.73807C13.2996 2.9139 13.5574 3.00508 13.8207 2.99176C14.084 2.97844 14.3314 2.8617 14.509 2.66694C14.7195 2.43132 14.9829 2.24894 15.2775 2.13474C15.5722 2.02054 15.8897 1.97777 16.204 2.00994C16.7149 2.06122 17.1866 2.30704 17.5212 2.69651C17.8559 3.08598 18.0279 3.58924 18.0017 4.10207C17.9755 4.6149 17.753 5.09799 17.3804 5.4513C17.0077 5.8046 16.5135 6.00105 16 5.99994H1C0.734784 5.99994 0.48043 6.1053 0.292893 6.29284C0.105357 6.48037 0 6.73473 0 6.99994C0 7.26516 0.105357 7.51951 0.292893 7.70705C0.48043 7.89459 0.734784 7.99994 1 7.99994H16C16.2767 7.99994 16.5453 7.97294 16.806 7.91894ZM3 4.99994H8.516C8.93227 4.99712 9.34124 4.8904 9.70581 4.68946C10.0704 4.48852 10.379 4.19972 10.6037 3.84928C10.8283 3.49884 10.9619 3.09784 10.9924 2.68268C11.0228 2.26752 10.949 1.85133 10.7779 1.47188C10.6067 1.09244 10.3434 0.761746 10.012 0.509816C9.68065 0.257886 9.2916 0.0926928 8.88019 0.0292269C8.46878 -0.034239 8.04804 0.00603105 7.65614 0.146383C7.26423 0.286736 6.91358 0.522727 6.636 0.832943C6.4591 1.03066 6.36799 1.29056 6.38271 1.55545C6.39743 1.82035 6.51678 2.06854 6.7145 2.24544C6.91222 2.42234 7.17211 2.51345 7.43701 2.49873C7.7019 2.48401 7.9501 2.36466 8.127 2.16694C8.18256 2.10471 8.2528 2.05738 8.33134 2.02924C8.40987 2.0011 8.49419 1.99306 8.57663 2.00585C8.65906 2.01864 8.73699 2.05185 8.80331 2.10246C8.86962 2.15307 8.92222 2.21947 8.95632 2.2956C8.99041 2.37174 9.00491 2.4552 8.9985 2.53837C8.99209 2.62155 8.96497 2.70179 8.91961 2.77181C8.87425 2.84182 8.81209 2.89937 8.7388 2.93922C8.66552 2.97906 8.58342 2.99994 8.5 2.99994H3C2.73478 2.99994 2.48043 3.1053 2.29289 3.29284C2.10536 3.48037 2 3.73473 2 3.99994C2 4.26516 2.10536 4.51951 2.29289 4.70705C2.48043 4.89459 2.73478 4.99994 3 4.99994ZM14.5 8.99994H6C5.73478 8.99994 5.48043 9.1053 5.29289 9.29284C5.10536 9.48037 5 9.73473 5 9.99994C5 10.2652 5.10536 10.5195 5.29289 10.707C5.48043 10.8946 5.73478 10.9999 6 10.9999H14.5C14.5834 10.9999 14.6655 11.0208 14.7388 11.0607C14.8121 11.1005 14.8742 11.1581 14.9196 11.2281C14.965 11.2981 14.9921 11.3783 14.9985 11.4615C15.0049 11.5447 14.9904 11.6281 14.9563 11.7043C14.9222 11.7804 14.8696 11.8468 14.8033 11.8974C14.737 11.948 14.6591 11.9812 14.5766 11.994C14.4942 12.0068 14.4099 11.9988 14.3313 11.9706C14.2528 11.9425 14.1826 11.8952 14.127 11.8329C14.0398 11.7337 13.9338 11.6527 13.8151 11.5947C13.6965 11.5367 13.5675 11.5027 13.4356 11.4948C13.3037 11.4869 13.1716 11.5052 13.0469 11.5487C12.9221 11.5921 12.8072 11.6599 12.7088 11.748C12.6104 11.8361 12.5304 11.9429 12.4734 12.0621C12.4165 12.1813 12.3838 12.3106 12.3771 12.4425C12.3704 12.5744 12.3899 12.7064 12.4346 12.8307C12.4792 12.9551 12.548 13.0693 12.637 13.1669C12.9146 13.4772 13.2652 13.7131 13.6571 13.8535C14.049 13.9939 14.4698 14.0341 14.8812 13.9707C15.2926 13.9072 15.6817 13.742 16.013 13.4901C16.3444 13.2381 16.6077 12.9074 16.7789 12.528C16.95 12.1486 17.0238 11.7324 16.9934 11.3172C16.9629 10.902 16.8293 10.501 16.6047 10.1506C16.38 9.80016 16.0714 9.51137 15.7068 9.31043C15.3422 9.10949 14.9333 9.00277 14.517 8.99994H14.5Z" fill="#161441"/>
</svg>
